<?xml version="1.0" encoding="UTF-8" standalone="no"?>
<svg
   width="163.94919"
   height="426.87027"
   viewBox="0 0 163.94919 426.87027"
   version="1.2"
   id="svg1675"
   sodipodi:docname="arrow-down.svg"
   inkscape:version="1.2 (dc2aedaf03, 2022-05-15)"
   inkscape:export-filename="arrow-down-web.svg"
   inkscape:export-xdpi="96"
   inkscape:export-ydpi="96"
   xmlns:inkscape="http://www.inkscape.org/namespaces/inkscape"
   xmlns:sodipodi="http://sodipodi.sourceforge.net/DTD/sodipodi-0.dtd"
   xmlns="http://www.w3.org/2000/svg"
   xmlns:svg="http://www.w3.org/2000/svg"
   xmlns:rdf="http://www.w3.org/1999/02/22-rdf-syntax-ns#"
   xmlns:cc="http://creativecommons.org/ns#"
   xmlns:dc="http://purl.org/dc/elements/1.1/">
  <defs
     id="defs1679" />
  <sodipodi:namedview
     id="namedview1677"
     pagecolor="#000000"
     bordercolor="#000000"
     borderopacity="0.25"
     inkscape:showpageshadow="2"
     inkscape:pageopacity="0"
     inkscape:pagecheckerboard="0"
     inkscape:deskcolor="#d1d1d1"
     showgrid="false"
     inkscape:zoom="0.54861111"
     inkscape:cx="-234.22785"
     inkscape:cy="26.43038"
     inkscape:window-width="1698"
     inkscape:window-height="1005"
     inkscape:window-x="4087"
     inkscape:window-y="292"
     inkscape:window-maximized="0"
     inkscape:current-layer="svg1675" />
  <title
     id="title1667">Stuff</title>
  <path
     fill="#000000"
     d="m 89.5737,0.01961013 v 0 c -0.688,0.05 -1.439,-0.15 -2.064,0.15 -0.718,0.33 -1.45,0.88999997 -1.73,1.62999997 -1.834,4.86 -2.737,10.0299999 -4.516,14.9199999 -0.102,0.27 -0.45,-0.44 -0.741,-0.5 -0.138,-0.03 -0.341,0.14 -0.322,0.28 0.094,0.7 0.622,1.31 0.629,2.02 0.004,0.39 -0.62,0.61 -0.598,1 0.04,0.71 0.768,1.29 0.768,2 0,0.71 -0.701,1.29 -0.767,2 -0.029,0.31 0.631,0.5 0.51,0.8 -0.255,0.61 -1.168,0.79 -1.424,1.41 -0.121,0.29 0.525,0.48 0.51,0.79 -0.019,0.39 -0.597,0.61 -0.597,1 0,0.39 0.598,0.61 0.598,1 0,0.39 -0.598,0.61 -0.598,1 0,0.39 0.607,0.61 0.598,1 -0.008,0.39 -0.525,0.6 -0.642,0.97 -0.106,0.34 -0.11,0.72 0,1.06 0.128,0.38 0.724,0.61 0.682,1.01 -0.287,2.76 -0.824,5.5 -1.635,8.15 -0.084,0.27 -0.429,-0.43 -0.711,-0.49 -0.135,-0.02 -0.362,0.18 -0.292,0.3 0.441,0.73 1.214,1.23 1.65,1.97 0.174,0.3 0.164,0.69 0.119,1.03 -0.521,4 -1.464,7.94 -1.81,11.96 -0.035,0.41 0.585,0.62 0.693,1.01 0.177,0.65 0.226,1.36 0.132,2.02 -0.472,3.35 -1.539,6.6 -1.824,9.97 -0.061,0.73 0.853,1.31 0.809,2.04 -0.462,7.79 -1.693,15.51 -2.312,23.29 -1.318,16.55 -2.58,33.1 -3.5,49.67 -0.023,0.41 0.685,0.6 0.685,1.01 0,1.05 -0.685,2.01 -0.686,3.06 0,0.39 0.557,0.57 0.685,0.94 0.12,0.34 0.047,0.73 0.027,1.09 -0.541,9.64 -1.368,19.25 -1.712,28.9 -0.015,0.4 0.644,0.63 0.642,1.04 -0.001,0.39 -0.551,0.6 -0.652,0.97 -0.174,0.66 -0.145,1.35 -0.146,2.03 -0.048,28 -0.048,56 0,84 0.001,0.68 -0.037,1.37 0.147,2.03 0.107,0.37 0.693,0.55 0.695,0.94 0.002,0.73 -0.717,1.35 -0.685,2.07 0.304,6.99 1.353,13.93 1.685,20.92 0.019,0.4 -0.634,0.63 -0.642,1.04 -0.009,0.39 0.598,0.61 0.598,1 0,0.39 -0.622,0.61 -0.598,1 0.044,0.72 0.775,1.29 0.784,2 0.258,22 0.446,44.006 0.014,66 -0.264,13.437 0.17,27.016 -2.1,40.262 -0.441,2.572 -2.195,-4.754 -3.611,-6.946 -0.665,-1.029 -1.838,-1.645 -2.573003,-2.626 -1.276,-1.701 -2.155,-3.678 -3.43,-5.38 -1.721,-2.297 -3.833,-4.284 -5.54,-6.591 -0.651,-0.878 -0.752,-2.117 -1.497,-2.918 -0.205,-0.22 -0.46,0.437 -0.756,0.498 -0.139,0.029 -0.287,-0.137 -0.329,-0.273 -0.165,-0.544 0.018,-1.193 -0.267,-1.685 -0.373,-0.644 -1.291,-0.877 -1.607,-1.551 -0.133,-0.285 0.775,-0.629 0.508,-0.795 -0.376,-0.235 -0.852,0.307 -1.295,0.303 -0.2,-0.002 -0.376,-0.17 -0.504,-0.322 -1.282,-1.517 -2.363,-3.202 -3.707,-4.663 -2.494,-2.709 -5.267,-5.149 -7.791,-7.828 -0.927,-0.983 -1.524,-2.27 -2.55,-3.149 -3.767,-3.23 -7.592,-6.436 -11.764,-9.122 -3.898,-2.511 -8.449,-3.895 -12.348,-6.404 -0.8710001,-0.56 -0.9310001,-1.895 -1.6720001,-2.617 -0.726,-0.703 -1.625,-1.323 -2.612,-1.553 -1.324,-0.31 -2.87,-0.61 -4.078,0.01 -1.197,0.62 -1.67799999,2.122 -2.33799999,3.296 -0.173,0.308 -0.22,0.719 -0.108,1.054 0.427,1.284 0.95899999,2.552 1.68699999,3.692 1.099,1.72 2.694,3.093 3.758,4.834 2.61,4.272 4.7060001,8.842 7.2380001,13.16 1.217,2.075 2.552,4.085 4.002,6.005 1.04,1.376 2.391,2.496 3.451,3.858 1.278,1.644 2.181,3.571 3.549,5.141 2.352,2.7 5.173,4.961 7.57,7.62 0.657,0.729 0.857,1.808 1.551,2.501 2.005,2.006 4.466,3.518 6.472,5.523 0.685,0.685 0.774,1.863 1.526,2.474 6.464,5.245 13.156,10.213 19.981,14.979 1.976,1.381 4.317003,2.163 6.371003,3.426 2.286,1.407 4.294,3.247 6.628,4.573 2.453,1.394 4.868,3.328 7.679,3.557 1.524,0.124 3.037,-1.279 3.761,-2.625 2.006,-3.731 2.882,-7.97 4.117,-12.021 0.98,-3.218 1.556,-6.55 2.523,-9.772 0.201,-0.673 0.819,-1.185 0.968,-1.871 0.263,-1.212 -0.107,-2.524 0.244,-3.713 0.218,-0.738 1.02,-1.168 1.394,-1.841 0.059,-0.105 -0.278,-0.196 -0.208,-0.294 0.387,-0.544 1.174,-0.79 1.42,-1.411 0.121,-0.304 -0.647,-0.518 -0.534,-0.825 1.193,-3.234 2.668,-6.369 4.306,-9.401 1.548,-2.868 3.292,-5.64 5.231,-8.259 3.81,-5.144 7.893,-10.083 11.995,-14.998 0.937,-1.123 1.924,-2.238 3.106,-3.101 2.543,-1.854 5.256,-3.473 8.006,-5.003 1.729,-0.962 3.685,-1.477 5.402,-2.458 0.641,-0.366 0.972,-1.138 1.592,-1.538 2.261,-1.457 4.612,-2.778 7.006,-4.004 4.4,-2.248 9.028,-4.048 13.364,-6.418 1.105,-0.61 1.843,-1.73 2.868,-2.46 1.315,-0.94 2.833,-1.58 4.13,-2.54 0.647,-0.48 1.364,-1.01 1.658,-1.76 0.192,-0.49 0.005,-1.16 -0.365,-1.54 -0.825,-0.83 -1.82,-1.81 -2.99,-1.84 -2.069,-0.05 -4.039,0.94 -6.001,1.6 -1.699,0.57 -3.214,1.66 -4.958,2.07 -0.406,0.1 -0.653,-0.72 -1.065,-0.65 -1.702,0.27 -3.315,0.97 -4.911,1.62 -1.295,0.54 -2.54,1.19 -3.737,1.92 -0.489,0.3 -0.768,0.9 -1.286,1.14 -0.516,0.24 -1.195,-0.03 -1.688,0.25 -0.646,0.37 -0.873,1.3 -1.551,1.61 -0.297,0.14 -0.507,-0.62 -0.82,-0.53 -0.985,0.28 -1.822,0.95 -2.662,1.54 -2.81,1.96 -5.354,4.312 -8.278,6.102 -0.279,0.171 -0.509,-0.619 -0.825,-0.534 -0.674,0.18 -1.084,0.896 -1.706,1.211 -0.103,0.053 -0.199,-0.284 -0.281,-0.203 -0.603,0.595 -0.867,1.512 -1.551,2.011 -1.916,1.396 -4.258,2.149 -6.136,3.594 -1.56,1.199 -2.644,2.919 -4.081,4.264 -0.739,0.692 -1.81,1.025 -2.427,1.828 -0.453,0.589 -0.162,1.557 -0.623,2.14 -0.86,1.088 -2.246,1.657 -3.185,2.677 -1.324,1.44 -2.555,2.987 -3.566,4.662 -0.289,0.479 0.081,1.21 -0.249,1.662 -0.548,0.75 -1.625,0.977 -2.207,1.7 -1.502,1.865 -2.797,3.898 -3.98,5.981 -1.889,3.326 -3.577,6.765 -5.223,10.219 -1.376,2.888 -2.84,5.758 -3.837,8.798 -1.767,5.389 -2.594,11.062 -4.432,16.428 -0.25,0.729 -1.069,1.137 -1.726,1.541 -0.123,0.075 -0.337,-0.133 -0.332,-0.277 0.498,-14.679 1.657,-29.337 1.836,-44.024 0.434,-35.66 0.048,-71.33 0,-107 -0.001,-0.68 0.038,-1.37 -0.147,-2.03 -0.106,-0.37 -0.694,-0.55 -0.695,-0.94 -0.002,-1.05 0.675,-2.01 0.686,-3.06 0.004,-0.39 -0.634,-0.58 -0.642,-0.97 -0.009,-0.39 0.607,-0.61 0.598,-1 -0.008,-0.39 -0.642,-0.58 -0.642,-0.97 0,-0.71 0.667,-1.32 0.642,-2.03 -0.025,-0.72 -0.772,-1.29 -0.784,-2 -0.255,-15 -0.056,-30 -0.015,-45 0.003,-1.01 -0.05,-2.04 0.148,-3.03 0.076,-0.38 0.651,-0.58 0.651,-0.97 0,-0.39 -0.569,-0.59 -0.651,-0.97 -0.144,-0.67 -0.144,-1.39 0,-2.06 0.082,-0.38 0.667,-0.58 0.651,-0.97 -0.028,-0.71 -0.802,-1.28 -0.769,-2 0.318,-7 1.508,-13.95 1.812,-20.96 0.032,-0.73 -0.838,-1.31 -0.812,-2.04 0.611,-17.07 1.67,-34.12 2.719,-51.17 0.221,-3.61 0.967,-7.18 1.092,-10.79 0.015,-0.42 -0.707,-0.66 -0.683,-1.08 0.648,-11.66 2.036,-23.26 2.684,-34.92 0.024,-0.42 -0.717,-0.66 -0.682,-1.08 0.305,-3.67 1.373,-7.25 1.68,-10.92 0.034,-0.4 -0.553,-0.62 -0.682,-1.01 -0.116,-0.35 -0.063,-0.73 -0.026,-1.09 1.149,-11.09 2.261,-22.19 3.584,-33.26 0.28,-2.34 0.537,-4.7 1.224,-6.95 0.254,-0.83 0.783,-1.68 1.541,-2.1 0.356,-0.2 0.625,0.57 1.019,0.67 0.182,0.04 0.341,-0.17 0.475,-0.3 0.653,-0.63 1.372,-1.22 1.876,-1.97 0.193,-0.29 0.133,-0.69 0.134,-1.03 0.003,-2.35 0.444,-4.7699999 -0.123,-7.0499999 -0.458,-1.84 -1.529,-3.57 -2.855,-4.92999997 M 24.529697,364.17661 v 0 c 1.104,1.043 2.126,2.179 3.311,3.128 0.714,0.572 1.711,0.759 2.356,1.407 0.78,0.784 1.047,1.981 1.811,2.78 2.767,2.893 6.036,5.285 8.731,8.244 0.21,0.231 -0.455,0.479 -0.506,0.787 -0.03,0.184 0.163,0.345 0.298,0.472 1.483,1.392 3.216,2.53 4.544,4.071 0.784,0.91 0.895,2.288 1.703,3.177 0.982,1.081 2.602,1.464 3.535,2.587 1.136,1.365 1.794,3.074 2.519,4.695 0.058,0.13 -0.134,0.326 -0.276,0.325 -0.514,0 -1.132,0.025 -1.506,-0.327 -6.619,-6.248 -13.226,-12.538 -19.304,-19.313 -3.22,-3.589 -6.035,-7.559 -8.515,-11.695 m 30.259,31.688 v 0 c 0.449,0.105 1.334,-0.147 1.346,0.314 0.012,0.456 -0.884,0.436 -1.329,0.333"
     id="path1671"
     style="display:inline;fill:#ffffff;fill-opacity:1"
     sodipodi:nodetypes="cscccccssssccsssscccccccccccccccsscccccccscccscsccsccccccccsccscccccccccscccscccsccccccsccccsccccccscsscccccsccccccccccccscccccccccsccsccccccsccsccsccsssccccccccccccscccccccccccsscccccsccsccsccssc" />
  <metadata
     id="metadata2537">
    <rdf:RDF>
      <cc:Work
         rdf:about="">
        <dc:title>Stuff</dc:title>
      </cc:Work>
    </rdf:RDF>
  </metadata>
</svg>
