<?xml version="1.0" encoding="UTF-8" standalone="no"?>
<!-- Created with Inkscape (http://www.inkscape.org/) -->

<svg
   width="14.852488mm"
   height="17.442507mm"
   viewBox="0 0 14.852488 17.442507"
   version="1.1"
   id="svg251"
   inkscape:version="1.2 (dc2aedaf03, 2022-05-15)"
   sodipodi:docname="arrow-thick-down.svg"
   xmlns:inkscape="http://www.inkscape.org/namespaces/inkscape"
   xmlns:sodipodi="http://sodipodi.sourceforge.net/DTD/sodipodi-0.dtd"
   xmlns="http://www.w3.org/2000/svg"
   xmlns:svg="http://www.w3.org/2000/svg">
  <sodipodi:namedview
     id="namedview253"
     pagecolor="#000000"
     bordercolor="#000000"
     borderopacity="0.25"
     inkscape:showpageshadow="2"
     inkscape:pageopacity="0"
     inkscape:pagecheckerboard="0"
     inkscape:deskcolor="#d1d1d1"
     inkscape:document-units="mm"
     showgrid="false"
     inkscape:zoom="0.914906"
     inkscape:cx="46.999364"
     inkscape:cy="-352.49523"
     inkscape:window-width="3840"
     inkscape:window-height="2045"
     inkscape:window-x="3840"
     inkscape:window-y="32"
     inkscape:window-maximized="1"
     inkscape:current-layer="layer1" />
  <defs
     id="defs248" />
  <g
     inkscape:label="Layer 1"
     inkscape:groupmode="layer"
     id="layer1"
     transform="translate(-92.634016,-241.71924)">
    <path
       d="m 101.1482,258.81917 v 0 c 0.26458,-0.35189 0.50297,-0.72496 0.79348,-1.05569 0.33179,-0.37835 0.69321,-0.73025 1.06839,-1.06627 0.0828,-0.0741 0.22305,-0.0688 0.29581,-0.15081 0.90805,-1.03717 1.71688,-2.159 2.63022,-3.19087 0.16404,-0.18521 0.42545,-0.26723 0.59081,-0.4498 0.20611,-0.23018 0.37783,-0.49477 0.50827,-0.77258 0.18547,-0.39687 0.31485,-0.82021 0.43259,-1.2409 0.0259,-0.0926 0.0259,-0.19843 -0.006,-0.28839 -0.0534,-0.15346 -0.12806,-0.30956 -0.24236,-0.42333 -0.18177,-0.18521 -0.38629,-0.36513 -0.62759,-0.45773 -0.17093,-0.0661 -0.41275,-0.11907 -0.54981,0.003 -0.40349,0.35719 -0.58605,0.91017 -0.93927,1.31763 -0.16192,0.18785 -0.42545,0.26723 -0.59108,0.44979 -0.17145,0.1905 -0.22251,0.4736 -0.40375,0.65617 -0.19579,0.19579 -0.52282,0.23283 -0.69903,0.44714 -0.0728,0.0873 0.12276,0.25136 0.0487,0.33867 -0.44344,0.52387 -1.0459,0.889 -1.51633,1.38906 -0.23362,0.24606 -0.36856,1.09802 -0.58446,0.83608 -0.53658,-0.65352 -0.58076,-1.59808 -0.72443,-2.43152 -0.032,-0.18521 0.2069,-0.33337 0.21511,-0.52123 0.008,-0.18785 -0.16722,-0.34925 -0.16987,-0.5371 -0.002,-0.10319 0.15822,-0.1614 0.15822,-0.26458 0,-0.10319 -0.15822,-0.1614 -0.15822,-0.26459 0,-0.10318 0.15981,-0.16139 0.15822,-0.26458 -0.003,-0.18785 -0.1778,-0.34925 -0.16986,-0.5371 0.008,-0.18786 0.19606,-0.33338 0.21484,-0.52123 0.0138,-0.13759 -0.0519,-0.27517 -0.12356,-0.39159 -0.0926,-0.15081 -0.26775,-0.24341 -0.35824,-0.39423 -0.0463,-0.0794 -0.0352,-0.18256 -0.0352,-0.27252 0,-0.26723 -0.0148,-0.53975 0.0352,-0.80168 0.0352,-0.18521 0.21484,-0.33338 0.21722,-0.52123 0.003,-0.18786 -0.19579,-0.34132 -0.2032,-0.52917 -0.004,-0.10319 0.15081,-0.1561 0.17224,-0.25665 0.0373,-0.17727 0.10795,-0.40216 -0.004,-0.54239 -0.0754,-0.0979 -0.24792,0.14287 -0.35534,0.0847 -0.10795,-0.0582 -0.11721,-0.22225 -0.12647,-0.34395 -0.0333,-0.43921 -0.0492,-0.88371 -2.7e-4,-1.32292 0.0212,-0.18785 0.1958,-0.33867 0.20744,-0.52917 0.006,-0.10318 -0.16113,-0.16139 -0.15822,-0.26458 0.003,-0.10319 0.15028,-0.1561 0.17224,-0.25665 0.0389,-0.17991 0.0738,-0.38364 0.003,-0.55033 -0.17569,-0.41804 -0.402434,-0.82815 -0.719141,-1.14829 -0.101864,-0.10319 -0.290777,-0.0423 -0.434975,-0.0238 -0.13626,0.0159 -0.276225,0.0529 -0.392112,0.127 -0.133615,0.0847 -0.264319,0.19579 -0.335492,0.33602 -0.198702,0.39952 -0.399256,0.81227 -0.459316,1.25412 -0.09525,0.69586 -0.05768,1.41023 0,2.11138 0.116416,1.41816 0.428625,2.81781 0.521758,4.23862 0.08096,1.23031 0.06271,2.46856 -2.65e-4,3.70152 -0.0127,0.24342 -0.268023,0.45773 -0.225425,0.70115 0.04472,0.25135 0.380207,0.37571 0.458259,0.61912 0.03228,0.10055 -0.175155,0.1614 -0.175684,0.26723 -7.93e-4,0.10319 0.150813,0.15611 0.172244,0.25665 0.03731,0.17727 0.06456,0.37571 -0.004,0.54239 -0.02699,0.0661 -0.159014,0.0397 -0.214841,-0.005 -0.31803,-0.25664 -0.64135,-0.52652 -0.866511,-0.86783 -0.288396,-0.43656 -0.370681,-0.98425 -0.650081,-1.42875 -0.471488,-0.74613 -1.017852,-1.44727 -1.589617,-2.11931 -0.380471,-0.44715 -0.754591,-0.93134 -1.259152,-1.23296 -0.233362,-0.14023 -0.555889,-0.0847 -0.814916,-0.003 -0.24474,0.0767 -0.495036,0.23284 -0.620184,0.45773 -0.112977,0.20109 -0.09313,0.47361 -0.02302,0.69586 0.169068,0.53181 0.441325,1.03187 0.723635,1.51341 0.09842,0.16934 0.298979,0.25929 0.407194,0.42334 0.243681,0.36512 0.401373,0.78581 0.64082,1.15358 0.240242,0.37042 0.499269,0.7329 0.794809,1.06098 0.550598,0.61119 1.187979,1.14035 1.738312,1.75154 0.248973,0.27517 0.341842,0.70115 0.653257,0.90488 0.531283,0.34925 1.16205,0.52916 1.77747,0.68527 0.102659,0.0265 0.171186,-0.1958 0.271992,-0.16405 0.214842,0.0688 0.314862,0.3519 0.528902,0.42334 0.0976,0.0317 0.16193,-0.15875 0.26485,-0.15875 0.10292,0 0.16563,0.18521 0.26458,0.15875"
       style="fill:#ffffff;stroke-width:0.264583"
       id="path241" />
  </g>
</svg>
