<?xml version="1.0" encoding="UTF-8" standalone="no"?>
<svg
   width="399.01315"
   height="90.722588"
   viewBox="0 0 399.01315 90.722588"
   version="1.2"
   id="svg63"
   xmlns="http://www.w3.org/2000/svg"
   xmlns:svg="http://www.w3.org/2000/svg"
   xmlns:rdf="http://www.w3.org/1999/02/22-rdf-syntax-ns#"
   xmlns:cc="http://creativecommons.org/ns#"
   xmlns:dc="http://purl.org/dc/elements/1.1/">
  <defs
     id="defs67" />
  <title
     id="title55">Stuff</title>
  <path
     fill="#000000"
     d="m 399.01314,54.390997 v 0 c -0.56,-0.744 -1.35,-1.363 -1.68,-2.232 -0.12,-0.294 0.45,-0.487 0.51,-0.797 0.02,-0.135 -0.16,-0.326 -0.3,-0.293 -0.39,0.097 -0.64,0.721 -1.03,0.622 -1.23,-0.315 -2.13,-1.558 -3.39,-1.75 -6.8,-1.041 -13.67,-1.58 -20.54,-1.915 -0.73,-0.036 -1.31,0.832 -2.04,0.812 -11.99,-0.316 -23.96,-1.502 -35.96,-1.813 -0.73,-0.019 -1.31,0.767 -2.04,0.828 -2.66,0.219 -5.34,0.208 -8,0 -0.71,-0.056 -1.28,-0.752 -2,-0.784 -0.39,-0.017 -0.6,0.551 -0.97,0.652 -0.66,0.173 -1.35,0.145 -2.03,0.145 -0.68,0 -1.37,0.015 -2.03,-0.146 -0.69,-0.17 -1.27,-0.712 -1.97,-0.836 -0.67,-0.117 -1.37,-0.046 -2.03,0.132 -0.39,0.108 -0.6,0.702 -1.01,0.696 -21.65,-0.325 -43.27,-1.362 -64.92,-1.688 -0.41,-0.006 -0.61,0.614 -1.01,0.697 -0.99,0.202 -2.03,0.271 -3.03,0.132 -0.7,-0.099 -1.26,-0.811 -1.97,-0.828 -1.06,-0.024 -2.04,0.735 -3.09,0.712 -14.64,-0.32 -29.24,-1.411 -43.88,-1.738 -0.72,-0.016 -1.31,0.707 -2.03,0.712 -0.73,0.004 -1.35,-0.704 -2.07,-0.686 -12.98,0.317 -25.94,1.365 -38.92,1.687 -0.41,0.01 -0.61,-0.63 -1.01,-0.696 -1.33,-0.218 -2.69,-0.289 -4.03,-0.133 -1.04,0.122 -1.95,0.926 -3,0.954 -0.71,0.019 -1.28,-0.654 -1.97,-0.821 -0.66,-0.159 -1.35,-0.146 -2.03,-0.146 -0.68,0 -1.37,-0.038 -2.03,0.146 -0.37,0.106 -0.55,0.688 -0.94,0.695 -0.71,0.012 -1.32,-0.667 -2.03,-0.642 -0.72,0.025 -1.3,0.668 -2,0.783 -0.67,0.108 -1.37,0.039 -2.03,-0.131 -0.37,-0.099 -0.58,-0.652 -0.97,-0.652 -0.39,0 -0.6,0.551 -0.97,0.652 -0.66,0.174 -1.35,0.146 -2.03,0.146 -30.352996,0.004 -60.709996,0.412 -91.057996,-0.134 -0.977,-0.018 -1.942,-0.738 -2.488,-1.548 -0.224,-0.332 0.613,-0.518 0.957,-0.724 2.507,-1.501 4.915,-3.211 7.588,-4.392 0.356,-0.157 0.615,0.639 1.001,0.598 0.623,-0.065 1.168,-0.492 1.661,-0.878 0.591,-0.462 0.869,-1.316 1.549,-1.632 0.296,-0.137 0.529,0.68 0.82,0.533 1.562,-0.792 2.711,-2.251 4.244,-3.099 3.05,-1.686 6.405,-2.779 9.45,-4.473 0.892,-0.496 1.342,-1.636 2.275,-2.049 0.356,-0.158 0.619,0.658 1.004,0.597 0.329,-0.052 0.265,-0.653 0.54,-0.841 0.993,-0.68 2.217,-0.985 3.18,-1.706 0.409,-0.307 0.413,-0.989 0.823,-1.295 0.95,-0.711 2.256,-0.884 3.143,-1.672 0.725,-0.643 0.894,-1.739 1.526,-2.474 1.411,-1.643 3.155,-2.979 4.57,-4.62 0.689,-0.8 0.873,-2.024 1.712,-2.665 0.477,-0.365 1.345,0.37 1.801,-0.021 0.298,-0.254 -0.837,-0.699 -0.599,-1.01 0.383,-0.498 1.43,-0.047 1.801,-0.553 0.94,-1.283 1.585,-2.8339999 1.832,-4.4039999 0.114,-0.724 -0.694,-1.318 -0.816,-2.041 -0.112,-0.665 -0.031,-1.365 0.132,-2.02 0.076,-0.305 0.728,-0.494 0.56,-0.761 -0.453,-0.717 -1.419,-0.95 -2.019,-1.55 -0.603,-0.603 -0.707,-1.99 -1.56,-2.029 -1.946,-0.091 -3.667,1.399 -5.592,1.697 -0.4,0.062 -0.624,-0.551 -1.01,-0.676 -0.334,-0.108 -0.747,-0.163 -1.053,0.009 -0.296,0.167 -0.243,0.678 -0.518,0.877 -1.161,0.842 -2.407,1.576 -3.705,2.184 -4.005,1.876 -8.213,3.307 -12.182,5.257 -5.946,2.9189999 -11.54,6.5339999 -17.541,9.3389999 -0.374,0.175 -0.665,-0.776 -1.057,-0.646 -1.217,0.403 -2.089,1.512 -3.244,2.07 -6.666,3.219 -13.549,5.98 -20.192,9.247 -3.168,1.559 -6.2919997,3.242 -9.2189997,5.218 -1.211,0.817 -2.177,1.966 -3.101,3.098 -0.647,0.793 -1.14900003,1.706 -1.57800003,2.636 -0.148,0.323 -0.123,0.704 -0.123,1.06 -10e-4,1.351 -0.188,2.737 0.12,4.053 0.314,1.339 0.679,2.845 1.70900003,3.757 1.659,1.47 3.86,2.215 5.929,3.009 6.0839997,2.334 12.4379997,3.931 18.4839997,6.359 3.459,1.389 6.808,3.09 9.968,5.066 3.05,1.907 5.621,4.499 8.586,6.535 2.363,1.623 5.036,2.767 7.374,4.426 1.235,0.877 2.035,2.286 3.287,3.14 0.47,0.32 1.195,-0.03 1.688,0.253 0.646,0.37 0.904,1.239 1.552,1.603 0.205,0.114 0.384,-0.552 0.571,-0.411 0.676,0.51 0.922,1.444 1.551,2.011 1.218,1.098 2.537,2.098 3.942,2.943 1.075,0.646 2.408,0.804 3.45,1.503 0.448,0.301 0.464,1.001 0.848,1.381 0.807,0.795 1.664,1.587 2.677,2.094 1.497,0.75 3.079,1.67 4.752,1.625 2.301,-0.062 4.582,-0.878 6.629,-1.931 0.869,-0.447 1.467,-1.427 1.73,-2.368 0.23,-0.822 -0.022,-1.752 -0.359,-2.536 -0.237,-0.551 -0.751,-0.98 -1.277,-1.267 -2.408,-1.316 -5.168,-1.978 -7.45,-3.501 -1.79,-1.195 -2.892,-3.218 -4.592,-4.539 -1.315,-1.021 -2.967,-1.524 -4.368,-2.424 -5.06,-3.245 -10.071,-6.569 -15.005,-10.002 -2.245,-1.562 -4.585,-3.046 -6.525,-4.974 -0.297,-0.295 0.802,-0.28 1.22,-0.296 1.007,-0.039 2.032,-0.062 3.021,0.133 0.383,0.075 0.583,0.641 0.974,0.651 0.388,0.011 0.612,-0.622 1,-0.598 0.716,0.044 1.286,0.772 2.004,0.784 15.33,0.255 30.664,0.056 45.996,0.014 0.676996,-0.002 1.371996,0.028 2.029996,-0.146 0.37,-0.101 0.58,-0.653 0.97,-0.652 0.61,10e-4 1.1,0.746 1.69,0.658 0.57,-0.085 0.75,-1.072 1.33,-1.105 0.5,-0.028 0.67,1.056 1.17,0.964 0.77,-0.144 1.06,-1.272 1.81,-1.517 0.37,-0.121 0.61,0.578 1,0.597 0.31,0.016 0.49,-0.614 0.79,-0.509 0.85,0.303 1.33,1.329 2.2,1.576 0.39,0.11 0.61,-0.651 1.01,-0.664 0.39,-0.013 0.63,0.721 1,0.598 0.81,-0.269 1.15,-1.598 2,-1.598 0.85,0 1.19,1.329 2,1.598 0.37,0.123 0.61,-0.609 1,-0.598 0.39,0.01 0.59,0.569 0.97,0.651 0.67,0.144 1.39,0.144 2.06,0 0.38,-0.082 0.58,-0.641 0.97,-0.651 0.39,-0.011 0.61,0.598 1,0.598 0.39,0 0.61,-0.62 1,-0.598 0.71,0.04 1.29,0.768 2,0.768 0.71,0 1.29,-0.728 2,-0.768 0.39,-0.022 0.61,0.607 1,0.598 0.39,-0.008 0.6,-0.524 0.97,-0.642 0.34,-0.106 0.72,-0.106 1.06,0 0.37,0.118 0.58,0.634 0.97,0.642 0.39,0.009 0.61,-0.607 1,-0.598 0.41,0.008 0.64,0.653 1.04,0.643 13.32,-0.34 26.6,-1.41 39.92,-1.687 0.73,-0.016 1.31,0.812 2.04,0.812 0.71,0 1.26,-0.812 1.97,-0.812 1.05,0 1.99,0.814 3.03,0.812 0.71,-10e-4 1.28,-0.653 1.97,-0.821 0.66,-0.159 1.35,-0.137 2.03,-0.147 2.33,-0.034 4.67,-0.181 7,0.014 1.04,0.088 1.98,0.824 3.03,0.828 0.71,0.002 1.26,-0.83 1.97,-0.812 1.05,0.027 1.95,0.912 3,0.938 0.73,0.018 1.31,-0.829 2.04,-0.812 12.31,0.284 24.59,1.443 36.9,1.712 1.05,0.023 2,-0.833 3.06,-0.838 0.71,-0.004 1.26,0.782 1.97,0.812 0.71,0.03 1.32,-0.667 2.03,-0.642 0.72,0.025 1.29,0.756 2,0.784 6,0.235 12,0.235 18,0 0.71,-0.028 1.28,-0.784 2,-0.784 0.72,0 1.29,0.747 2,0.784 4.33,0.226 8.67,0.223 13,0 1.04,-0.054 1.98,-0.779 3.03,-0.828 0.39,-0.018 0.58,0.634 0.97,0.642 0.39,0.009 0.61,-0.607 1,-0.598 0.39,0.008 0.6,0.525 0.97,0.642 0.34,0.106 0.72,0.106 1.06,0 0.37,-0.117 0.58,-0.644 0.97,-0.642 0.39,0.002 0.59,0.6 0.97,0.652 1.67,0.221 3.36,0.279 5.03,0.146 1.38,-0.109 2.68,-0.89 4.06,-0.868 16.31,0.26 32.59,1.378 48.9,1.713 0.4,0.008 0.62,-0.556 1.01,-0.686 0.35,-0.117 0.73,-0.05 1.09,-0.027 8.63,0.548 17.24,1.407 25.88,1.738 0.72,0.027 1.34,-0.664 2.06,-0.668 0.39,-0.002 0.59,0.6 0.97,0.652 1.67,0.221 3.36,0.331 5.03,0.146 3.29,-0.365 6.61,-0.82 9.77,-1.789 0.74,-0.225 1.26,-0.985 1.58,-1.683 m -336.060996,-39.053 v 0 c -0.436,0.119 -0.857,0.351 -1.309,0.358 -0.146,0.003 -0.405,-0.255 -0.282,-0.332 0.387,-0.245 0.875,-0.324 1.332,-0.332 m -1.738,1.31 v 0 c -0.536,0.604 -0.939,1.359 -1.608,1.81 -2.227,1.503 -4.637,2.717 -6.998,3.999 -10.066,5.464 -20.066,11.058 -30.28,16.239 -2.011,1.02 -4.146,1.848 -6.346,2.342 -1.067,0.239 -3.956,0.674 -3.276,-0.183 1.648,-2.073 4.392,-2.987 6.751,-4.191 8.878,-4.528 18.052,-8.459 26.93,-12.988 3.376,-1.722 6.481,-3.935 9.807,-5.753 1.172,-0.64 2.374,-1.284 3.668,-1.613"
     id="path59"
     clip-path="none"
     style="fill:#333333;fill-opacity:1" />
  <metadata
     id="metadata432">
    <rdf:RDF>
      <cc:Work
         rdf:about="">
        <dc:title>Stuff</dc:title>
      </cc:Work>
    </rdf:RDF>
  </metadata>
</svg>
