<?xml version="1.0" encoding="UTF-8" standalone="no"?>
<!-- Created with Inkscape (http://www.inkscape.org/) -->

<svg
   width="133.72562mm"
   height="57.497952mm"
   viewBox="0 0 133.72562 57.497952"
   version="1.1"
   id="svg4011"
   xmlns="http://www.w3.org/2000/svg"
   xmlns:svg="http://www.w3.org/2000/svg">
  <defs
     id="defs4008" />
  <g
     id="layer1"
     transform="translate(-38.072557,-86.304805)">
    <path
       d="m 99.444306,143.68694 v 0 c 0.593464,-0.13997 1.175014,-0.34555 1.780124,-0.41963 0.10662,-0.013 0.16774,0.16642 0.27516,0.16827 0.10266,0.002 0.16193,-0.16113 0.26459,-0.15822 0.10318,0.003 0.15769,0.14632 0.2577,0.17224 0.17277,0.0452 0.35851,0.0635 0.53499,0.0349 0.18732,-0.0304 0.34078,-0.19896 0.53022,-0.20716 0.10319,-0.005 0.15558,0.1561 0.25771,0.17224 0.35083,0.0561 0.70987,0.0389 1.06521,0.0389 0.17912,0 0.36301,0.007 0.53605,-0.0389 0.0997,-0.0265 0.15425,-0.1696 0.2577,-0.17224 0.10266,-0.003 0.16192,0.16404 0.26458,0.15822 0.18865,-0.0106 0.34026,-0.2032 0.52917,-0.2032 0.18891,0 0.34025,0.19579 0.52917,0.2032 0.10318,0.004 0.15557,-0.15637 0.2577,-0.17251 0.35057,-0.055 0.71147,-0.0746 1.06415,-0.0349 0.19236,0.0217 0.34767,0.24262 0.53923,0.21537 0.46222,-0.0659 0.85142,-0.43048 1.3155,-0.48022 1.05146,-0.11245 2.11641,-0.0532 3.17262,2.7e-4 0.16987,0.009 0.30771,0.21034 0.47599,0.18441 0.1815,-0.028 0.27358,-0.25876 0.44423,-0.32676 0.0638,-0.0257 0.12489,0.078 0.19368,0.0717 2.18572,-0.1987 4.3598,-0.52335 6.5487,-0.68501 0.11245,-0.008 0.17436,0.18997 0.28681,0.18018 1.93992,-0.1688 3.85868,-0.54001 5.79861,-0.70934 0.11192,-0.01 0.17462,0.19526 0.28601,0.17885 0.53552,-0.0786 1.02341,-0.38258 1.56078,-0.44952 0.19394,-0.0243 0.36221,0.21087 0.55615,0.18547 1.15359,-0.15161 2.26642,-0.54292 3.41842,-0.7075 0.11112,-0.0159 0.17436,0.19289 0.28575,0.1786 2.42914,-0.31195 4.84267,-0.7374 7.25699,-1.1475 1.973,-0.33496 3.95208,-0.64823 5.90444,-1.08797 3.19167,-0.7194 6.36006,-1.54119 9.52024,-2.3876 1.17793,-0.31564 2.354,-0.65405 3.49012,-1.09775 1.59464,-0.62283 3.19828,-1.25439 4.68868,-2.09656 1.32212,-0.74718 2.50216,-1.72403 3.70708,-2.64822 0.11694,-0.0897 0.12991,-0.27066 0.23415,-0.37491 0.70141,-0.70115 1.49702,-1.30678 2.17382,-2.03147 0.38947,-0.41725 0.7366,-0.88133 1.01256,-1.38086 0.39291,-0.71147 0.73051,-1.45891 0.98213,-2.23176 0.0331,-0.10134 -0.17171,-0.16695 -0.16615,-0.27358 0.01,-0.18944 0.19685,-0.34052 0.20743,-0.53023 0.0487,-0.88529 0.10768,-1.78435 -0.0318,-2.66038 -0.0987,-0.62124 -0.41355,-1.1901 -0.67178,-1.76398 -0.32279,-0.71781 -0.67601,-1.42372 -1.06865,-2.10608 -0.31777,-0.55139 -0.67654,-1.08003 -1.05886,-1.58856 -0.42096,-0.56012 -0.85355,-1.11628 -1.34806,-1.61264 -0.19632,-0.19711 -0.48709,-0.27384 -0.70432,-0.44767 -0.22674,-0.1815 -0.38232,-0.44556 -0.62044,-0.61172 -0.94271,-0.65775 -1.89865,-1.30413 -2.90989,-1.85155 -1.67455,-0.90673 -3.43747,-1.64095 -5.1353,-2.50375 -0.12991,-0.0661 -0.19473,-0.2495 -0.33761,-0.27755 -0.1008,-0.0201 -0.16907,0.19632 -0.26485,0.15822 -0.48074,-0.19103 -0.8546,-0.59902 -1.33402,-0.79375 -2.35321,-0.95594 -4.74954,-1.80287 -7.14375,-2.65007 -0.8898,-0.31485 -1.79547,-0.58499 -2.70563,-0.83502 -1.43352,-0.39397 -2.87258,-0.77153 -4.32356,-1.09591 -1.72376,-0.38523 -3.45096,-0.76808 -5.19747,-1.03266 -2.52069,-0.38206 -5.05566,-0.67231 -7.5946,-0.90594 -0.11272,-0.0103 -0.1741,0.186 -0.28708,0.18124 -1.93648,-0.0844 -3.86159,-0.35798 -5.79808,-0.44609 -0.10795,-0.005 -0.16801,0.17489 -0.27596,0.16987 -0.18944,-0.009 -0.34078,-0.19368 -0.53022,-0.20744 -0.79137,-0.0574 -1.58671,-0.0127 -2.38019,-0.004 -0.26723,0.003 -0.53843,-0.0116 -0.80063,0.0392 -0.18521,0.0357 -0.33364,0.21484 -0.52229,0.21723 -0.18891,0.003 -0.34025,-0.19527 -0.52917,-0.2032 -0.10266,-0.005 -0.15928,0.1389 -0.25744,0.16986 -0.0886,0.028 -0.19103,0.0302 -0.27887,0 -0.0974,-0.0333 -0.15266,-0.14737 -0.24976,-0.18124 -0.091,-0.0318 -0.19289,-0.0138 -0.28893,-0.007 -2.01983,0.14208 -4.03463,0.36248 -6.05737,0.45297 -0.10795,0.005 -0.16801,-0.16987 -0.27596,-0.16987 -0.10292,0 -0.15928,0.13891 -0.25744,0.16987 -0.0886,0.0281 -0.19076,0.0291 -0.27914,0 -0.10239,-0.0339 -0.16086,-0.19024 -0.26828,-0.18098 -4.13862,0.35401 -8.27511,0.74851 -12.396794,1.26418 -0.53393,0.0669 -1.04696,0.26723 -1.54146,0.47969 -0.2884,0.12382 -0.54478,0.31803 -0.78529,0.51991 -0.25902,0.21722 -0.5035,0.45773 -0.70432,0.72998 -0.0542,0.0735 -0.0349,0.18071 -0.0349,0.27252 0,0.1786 -0.0362,0.37121 0.0349,0.53499 0.0662,0.15161 0.21008,0.26379 0.35084,0.35057 0.0778,0.0484 0.18098,0.0349 0.27252,0.0352 0.18098,5.3e-4 0.37597,0.0389 0.5424,-0.0323 0.31723,-0.13546 0.55959,-0.40719 0.86386,-0.56938 0.33999,-0.18124 0.68474,-0.37836 1.06204,-0.45667 0.96414,-0.20082 1.95051,-0.27781 2.930524,-0.37412 1.97644,-0.19421 3.95605,-0.36037 5.93725,-0.49768 3.80418,-0.26326 7.6081,-0.54425 11.41783,-0.70353 0.18865,-0.008 0.33973,0.19526 0.52838,0.20346 0.10265,0.004 0.15451,-0.16986 0.25744,-0.16986 0.18732,0 0.34898,0.17648 0.53631,0.16986 0.1897,-0.007 0.34078,-0.19605 0.52996,-0.20743 0.96784,-0.0585 1.94098,-0.0585 2.90856,0 0.18944,0.0114 0.34078,0.19844 0.53023,0.20743 0.10768,0.005 0.16801,-0.177 0.27569,-0.16933 1.23323,0.0857 2.44872,0.35904 3.68194,0.44503 0.10742,0.007 0.16775,-0.1696 0.2757,-0.16933 0.10266,0 0.15928,0.1389 0.25744,0.16986 0.0886,0.028 0.1905,0.0291 0.27887,0 0.10239,-0.0339 0.16113,-0.19103 0.26829,-0.18045 0.79639,0.0799 1.56316,0.36407 2.35955,0.44397 0.11192,0.0111 0.17489,-0.19579 0.28602,-0.17912 3.36391,0.50403 6.72623,1.03928 10.05707,1.72852 2.35585,0.48763 4.70112,1.05596 6.98924,1.79917 2.89454,0.94006 5.72188,2.08121 8.53493,3.243 1.24751,0.51541 2.43734,1.16178 3.63537,1.78382 1.00409,0.52149 2.02221,1.02552 2.96863,1.64544 1.10463,0.72337 2.16296,1.52162 3.1697,2.3757 0.19791,0.16774 0.24765,0.45878 0.41011,0.66092 0.2032,0.25268 0.5072,0.42096 0.68104,0.6948 0.60748,0.95726 1.15226,1.9558 1.64861,2.97498 0.26221,0.53922 0.51832,1.09722 0.62098,1.68777 0.10769,0.61886 0.0863,1.26207 0,1.8841 -0.0622,0.45112 -0.24236,0.88265 -0.43947,1.29328 -0.29766,0.62019 -0.66331,1.20677 -1.03743,1.78382 -0.18098,0.27914 -0.39,0.5424 -0.62416,0.77867 -0.25955,0.26194 -0.60007,0.4371 -0.84957,0.70829 -0.17569,0.19077 -0.21299,0.49239 -0.41011,0.66093 -0.42545,0.3638 -0.9689,0.56568 -1.41684,0.90144 -0.25956,0.19447 -0.42783,0.49715 -0.6948,0.68104 -0.60986,0.41962 -1.25756,0.78554 -1.91902,1.11839 -0.92445,0.46514 -1.86558,0.90143 -2.83183,1.27238 -1.2999,0.49874 -2.6162,0.96388 -3.9587,1.3335 -3.13029,0.86148 -6.29126,1.60946 -9.45092,2.35691 -1.49145,0.35269 -2.98635,0.70114 -4.4995,0.94297 -0.11086,0.0177 -0.17489,-0.19526 -0.28575,-0.17833 -1.93543,0.29713 -3.83434,0.80354 -5.76871,1.10755 -4.05739,0.63791 -8.12509,1.2147 -12.20153,1.71715 -0.10689,0.013 -0.16589,-0.14685 -0.26828,-0.18045 -0.0884,-0.0291 -0.19103,-0.0304 -0.27887,0 -0.0979,0.0341 -0.14923,0.16272 -0.25056,0.18389 -0.26115,0.0545 -0.53526,0.0712 -0.79984,0.0352 -0.27517,-0.0376 -0.51673,-0.24607 -0.79454,-0.25242 -0.27649,-0.007 -0.52467,0.20611 -0.80116,0.21484 -0.10769,0.003 -0.1606,-0.18917 -0.26829,-0.18071 -1.05833,0.0815 -2.09444,0.36381 -3.15277,0.4445 -0.10822,0.008 -0.16405,-0.15478 -0.26882,-0.18335 -0.17224,-0.0468 -0.35692,-0.055 -0.53419,-0.0349 -1.1475,0.12964 -2.27965,0.3855 -3.43033,0.48286 -0.10742,0.009 -0.16801,-0.16695 -0.27569,-0.16933 -0.10293,-0.002 -0.16193,0.1606 -0.26459,0.15848 -0.10768,-0.002 -0.16827,-0.17991 -0.27543,-0.1688 -0.79613,0.0831 -1.56369,0.36089 -2.35955,0.44397 -0.10716,0.0111 -0.16775,-0.16695 -0.27543,-0.16907 -0.10266,-0.002 -0.16193,0.16087 -0.26459,0.15849 -0.10266,-0.002 -0.15901,-0.13811 -0.25664,-0.1696 -0.0918,-0.0296 -0.19368,-0.0193 -0.28919,-0.007 -1.04934,0.13838 -2.08624,0.38153 -3.14166,0.45879 -0.19553,0.0143 -0.36143,-0.19579 -0.55722,-0.18786 -1.93675,0.0789 -3.86159,0.35798 -5.798084,0.44609 -0.10795,0.005 -0.16801,-0.17013 -0.27596,-0.17013 -0.10265,2.7e-4 -0.15928,0.13917 -0.25744,0.17013 -0.0886,0.028 -0.19103,0.0302 -0.27887,0 -0.0976,-0.0336 -0.15293,-0.14817 -0.25029,-0.1815 -0.0878,-0.0302 -0.19024,-0.028 -0.27887,0 -0.0982,0.031 -0.15478,0.16748 -0.25744,0.16986 -0.10266,0.002 -0.16193,-0.16457 -0.26459,-0.15822 -0.18944,0.0116 -0.34131,0.18891 -0.53022,0.20743 -0.52599,0.0516 -1.05939,0.0516 -1.58565,0 -0.18865,-0.0185 -0.34052,-0.19579 -0.52996,-0.20743 -0.10266,-0.006 -0.16166,0.15822 -0.26458,0.15822 -0.10293,0 -0.16193,-0.16404 -0.26459,-0.15822 -0.18864,0.0106 -0.34025,0.2032 -0.52916,0.2032 -0.18892,0 -0.34052,-0.19262 -0.52917,-0.2032 -0.10266,-0.006 -0.16192,0.15822 -0.26458,0.15822 -0.10293,0 -0.16193,-0.1606 -0.26459,-0.15822 -0.10292,0.002 -0.15928,0.1389 -0.25744,0.16986 -0.0886,0.028 -0.19023,0.028 -0.27887,0 -0.0982,-0.031 -0.15478,-0.17013 -0.25744,-0.16986 -0.10821,0 -0.16801,0.17383 -0.27596,0.16986 -4.24047,-0.14764 -8.48016,-0.34131 -12.71376,-0.62256 -2.02062,-0.13415 -4.02272,-0.48948 -6.04361,-0.62336 -0.195,-0.013 -0.36221,0.20902 -0.55615,0.18547 -0.53869,-0.0651 -1.02976,-0.36486 -1.56686,-0.44185 -0.1106,-0.0159 -0.17463,0.19526 -0.2847,0.17647 -0.97631,-0.16536 -1.90526,-0.56277 -2.88395,-0.71358 -0.19262,-0.0296 -0.36301,0.21775 -0.55484,0.18336 -0.80883,-0.14446 -1.55654,-0.54293 -2.36193,-0.70459 -0.10848,-0.022 -0.17515,0.20056 -0.28258,0.1741 -0.28866,-0.0712 -0.49,-0.3638 -0.7784,-0.43551 -0.10292,-0.0257 -0.16404,0.14314 -0.26458,0.17595 -0.091,0.0296 -0.19844,0.0405 -0.28681,0.004 -0.27411,-0.11403 -0.48445,-0.36962 -0.77153,-0.44423 -0.10583,-0.0275 -0.17383,0.19738 -0.27993,0.17092 -0.28839,-0.0722 -0.49,-0.36328 -0.7784,-0.43551 -0.1061,-0.0265 -0.17621,0.20532 -0.27966,0.17092 -0.46911,-0.15636 -0.83979,-0.54133 -1.3081,-0.70008 -0.10028,-0.0339 -0.16801,0.18388 -0.27226,0.16457 -0.14314,-0.0265 -0.20849,-0.20929 -0.33708,-0.27755 -0.31274,-0.16563 -0.6313,-0.3384 -0.97605,-0.41778 -0.0849,-0.0193 -0.1389,0.17754 -0.21854,0.14288 -0.17886,-0.0778 -0.22252,-0.36539 -0.41064,-0.41672 -0.15557,-0.0423 -0.28866,0.20955 -0.44767,0.18336 -0.34952,-0.0574 -0.66358,-0.25242 -0.97658,-0.41805 -0.12859,-0.068 -0.19606,-0.2405 -0.33655,-0.27702 -0.081,-0.0209 -0.13388,0.16696 -0.21114,0.13494 -0.16324,-0.0677 -0.20875,-0.31115 -0.37279,-0.37676 -0.0778,-0.031 -0.12383,0.1225 -0.204,0.14657 -0.0889,0.0265 -0.19923,0.0463 -0.27834,-0.002 -0.0836,-0.0511 -0.0717,-0.19023 -0.14446,-0.25585 -0.19209,-0.1733 -0.38762,-0.37015 -0.63474,-0.44688 -0.10107,-0.0317 -0.17118,0.19685 -0.27199,0.16431 -0.21484,-0.0691 -0.31856,-0.34026 -0.52837,-0.42254 -0.077,-0.0302 -0.14208,0.18335 -0.20823,0.13388 -0.27305,-0.20426 -0.37703,-0.59108 -0.65934,-0.78264 -0.40984,-0.27834 -0.92366,-0.3638 -1.36393,-0.59108 -1.00806,-0.51991 -2.0148,-1.04749 -2.97709,-1.64809 -0.11853,-0.0741 -0.11642,-0.26829 -0.22834,-0.35216 -0.60219,-0.45164 -1.27423,-0.80328 -1.88991,-1.23666 -0.0717,-0.0503 -0.16061,-0.11986 -0.16114,-0.20744 -7.9e-4,-0.10292 0.13441,-0.16483 0.1577,-0.26511 0.008,-0.0357 -0.0421,-0.0863 -0.0778,-0.078 -0.10028,0.0236 -0.16484,0.13785 -0.26591,0.15822 -0.0484,0.01 -0.09,-0.0447 -0.12541,-0.0791 -0.47546,-0.46117 -0.96388,-0.9107 -1.40494,-1.40494 -0.29395,-0.3294 -0.57044,-0.67945 -0.79454,-1.05992 -0.39846,-0.67548 -0.72761,-1.38985 -1.0668,-2.09682 -0.15293,-0.31882 -0.34237,-0.63183 -0.40905,-0.97922 -0.0839,-0.43815 -0.0352,-0.89218 -0.0352,-1.33827 0,-0.18229 -0.0193,-0.37147 0.0347,-0.5453 0.18627,-0.59717 0.41196,-1.18375 0.68025,-1.7489 0.13599,-0.28654 0.30347,-0.56674 0.52625,-0.79243 0.19236,-0.19473 0.49848,-0.24791 0.69215,-0.44158 0.18124,-0.18124 0.22199,-0.47361 0.40376,-0.65432 0.19526,-0.1942 0.49106,-0.26008 0.69797,-0.44159 0.51911,-0.45588 0.91493,-1.04934 1.46923,-1.46129 0.10663,-0.0791 0.26247,0.1135 0.39105,0.0788 0.0849,-0.023 0.0685,-0.17515 0.14288,-0.22278 0.60881,-0.38761 1.279,-0.67363 1.88304,-1.06838 0.16589,-0.10822 0.23812,-0.33206 0.41063,-0.42995 0.0548,-0.031 0.0976,0.13811 0.15399,0.1098 0.15769,-0.0796 0.21008,-0.3085 0.37333,-0.37571 0.0773,-0.032 0.13044,0.15478 0.2114,0.13468 0.0855,-0.0212 0.0693,-0.17384 0.14261,-0.22225 0.54822,-0.36354 1.09511,-0.74375 1.70074,-1.00013 0.0976,-0.0413 0.17489,0.20638 0.27226,0.16457 0.24606,-0.10557 0.35507,-0.42201 0.59637,-0.53737 1.33588,-0.63817 2.74637,-1.10807 4.10078,-1.70629 0.56197,-0.24818 1.06415,-0.63183 1.64544,-0.83133 0.10319,-0.0354 0.17595,0.20532 0.2794,0.17066 1.78699,-0.59558 3.48985,-1.4269 5.27685,-2.02247 0.10345,-0.0347 0.1733,0.19632 0.2794,0.17039 0.48313,-0.11801 0.90487,-0.41778 1.37663,-0.57521 1.81742,-0.60616 3.63511,-1.21893 5.48613,-1.7137 0.1061,-0.0283 0.17172,0.18494 0.28099,0.17224 0.20214,-0.0238 0.35507,-0.20558 0.54822,-0.27014 0.77337,-0.2585 1.54516,-0.53816 2.345,-0.69691 0.10901,-0.0217 0.17647,0.20558 0.28337,0.17515 0.55165,-0.15663 1.0197,-0.54398 1.57109,-0.70141 0.10557,-0.0302 0.17383,0.19712 0.28099,0.17225 1.26921,-0.29528 2.48655,-0.78396 3.74835,-1.1094 3.98092,-1.02659 7.99253,-1.9304 11.9761,-2.94587 1.02315,-0.26088 2.00951,-0.66278 3.04218,-0.88239 0.10848,-0.023 0.17489,0.1987 0.28337,0.17516 1.16893,-0.25347 2.30955,-0.62627 3.4507,-0.98478 0.17674,-0.0558 0.30956,-0.2413 0.49477,-0.2548 0.19235,-0.0138 0.36248,0.22225 0.55059,0.17913 0.99166,-0.22622 1.907394,-0.719936 2.894284,-0.965733 0.10769,-0.02672 0.17489,0.198437 0.28337,0.175154 1.15861,-0.248709 2.26192,-0.718344 3.42,-0.969963 0.10451,-0.02275 0.16775,0.177006 0.27438,0.167217 0.16404,-0.01455 0.30744,-0.128588 0.43629,-0.230981 0.17093,-0.135732 0.23813,-0.428096 0.45138,-0.474398 0.23998,-0.05186 0.45747,0.193939 0.70062,0.225425 0.26776,0.0344 0.54478,0.02434 0.80883,-0.03122 0.70168,-0.146844 1.37107,-0.426244 2.07275,-0.572294 5.01253,-1.042194 10.0502,-1.960562 15.06511,-2.991114 0.81068,-0.166423 1.59332,-0.461698 2.40929,-0.599811 0.49795,-0.08414 1.02394,0.06112 1.51342,-0.06297 0.19076,-0.04842 0.23072,-0.343958 0.4101,-0.424656 0.0765,-0.0344 0.11986,0.13679 0.20294,0.148961 0.26617,0.03916 0.55139,0.08387 0.80698,-2.65e-4 0.21563,-0.07064 0.30744,-0.363273 0.52229,-0.436563 0.0971,-0.03334 0.15451,0.169863 0.25744,0.169863 0.18759,0 0.34872,-0.170392 0.53631,-0.169863 0.10345,2.65e-4 0.15663,0.150548 0.2577,0.172244 0.17912,0.03863 0.55272,0.184944 0.5498,0.0016 -0.004,-0.239448 -0.54953,-0.214842 -0.55668,-0.45429 -0.006,-0.180975 0.36354,-0.06456 0.54187,-0.03307 0.18653,0.03307 0.33734,0.186002 0.52334,0.221192 0.23178,0.04392 0.48419,0.08864 0.7075,0.01217 0.24474,-0.08361 0.37333,-0.388938 0.61992,-0.466461 0.10239,-0.03228 0.15557,0.165365 0.26008,0.189707 0.17622,0.04075 0.38603,0.08678 0.5424,-0.004 0.0818,-0.04736 -0.14288,-0.23839 -0.0569,-0.277813 0.50906,-0.232833 1.07183,-0.332316 1.62164,-0.43815 0.26511,-0.05133 0.54107,-0.06191 0.80909,-0.03069 0.27543,0.03228 0.5289,0.265906 0.80195,0.21881 0.22384,-0.03863 0.29528,-0.387879 0.51462,-0.445558 0.1815,-0.04763 0.3548,0.215106 0.53657,0.169598 0.21961,-0.05477 0.30189,-0.381794 0.52176,-0.434182 0.18177,-0.04339 0.34449,0.158221 0.5297,0.183621 0.2667,0.03651 0.55192,0.08387 0.80751,-2.64e-4 0.21563,-0.07064 0.30718,-0.363802 0.52202,-0.436563 0.0979,-0.03334 0.1569,0.150548 0.25797,0.172244 0.177,0.0381 0.37623,0.07038 0.54292,-2.65e-4 0.20955,-0.0889 0.29184,-0.40296 0.51488,-0.447939 0.27067,-0.05477 0.53711,0.232568 0.8083,0.180975 0.22225,-0.04233 0.30824,-0.359304 0.52176,-0.434182 0.0971,-0.03413 0.16193,0.158221 0.26485,0.158221 0.10292,0 0.16192,-0.159543 0.26458,-0.158485 0.1061,0.0013 0.1696,0.192352 0.27226,0.164835 0.28654,-0.07673 0.48022,-0.386821 0.77152,-0.4445 0.1905,-0.03757 0.36222,0.216694 0.55351,0.182563 0.80857,-0.145256 1.55602,-0.543984 2.36167,-0.705379 0.10478,-0.0209 0.1651,0.144991 0.2667,0.178593 0.0913,0.03043 0.19474,0.02699 0.2884,0.0056 1.31948,-0.303477 2.61197,-0.726282 3.94229,-0.97843 0.11007,-0.0209 0.17515,0.197909 0.28522,0.177271 1.33218,-0.249502 2.61647,-0.720196 3.94864,-0.970491 0.10504,-0.01958 0.1651,0.145256 0.2667,0.178593 0.091,0.03016 0.195,0.02911 0.28787,0.0048 0.25585,-0.06694 0.48551,-0.220133 0.74427,-0.274902 1.35811,-0.288661 2.74823,-0.422275 4.09681,-0.753798 0.21114,-0.05186 0.43101,-0.188383 0.52784,-0.383117 0.10425,-0.209814 0.12092,-0.4953 0.0122,-0.702998 -0.11907,-0.227541 -0.37333,-0.385762 -0.62019,-0.457464 -0.3429,-0.09948 -0.71649,-0.07805 -1.0705,-0.03281 -2.2098,0.281782 -4.3942,0.744803 -6.60559,1.012032 -0.11165,0.01376 -0.17436,-0.192088 -0.28628,-0.179123 -0.70776,0.08123 -1.38509,0.343429 -2.08941,0.451908 -0.26908,0.04154 -0.54822,0.03969 -0.81704,-0.0048 -0.10213,-0.01667 -0.15584,-0.188913 -0.25797,-0.172244 -0.13811,0.02222 -0.1897,0.227277 -0.32385,0.266964 -0.66886,0.19685 -1.35334,0.356394 -2.04655,0.430742 -0.10742,0.01138 -0.16166,-0.164306 -0.26828,-0.182827 -0.26829,-0.04604 -0.54849,-0.05001 -0.81704,-0.0042 -4.7617,0.809625 -9.49457,1.784879 -14.26051,2.568045 -0.1106,0.01799 -0.17436,-0.193675 -0.28549,-0.1778 -0.74374,0.104775 -1.45467,0.379413 -2.19127,0.52705 -0.97394,0.194998 -1.96586,0.295805 -2.93794,0.500328 -0.14922,0.03148 -0.25717,0.197643 -0.40984,0.204522 -0.11033,0.0048 -0.17251,-0.188118 -0.28204,-0.174095 -1.26498,0.163248 -2.52122,0.403225 -3.76264,0.695854 -0.51912,0.122502 -0.97684,0.465137 -1.50416,0.545835 -0.27834,0.0426 -0.54451,-0.228335 -0.82365,-0.189706 -0.372,0.05159 -0.66675,0.3683 -1.03372,0.447146 -0.10425,0.02249 -0.17198,-0.198702 -0.27358,-0.166423 -0.21511,0.06879 -0.31406,0.354012 -0.52917,0.423069 -0.0979,0.03148 -0.15452,-0.169863 -0.25744,-0.169863 -0.18759,0 -0.34872,0.169333 -0.53631,0.169863 -0.10742,2.64e-4 -0.16933,-0.188119 -0.2749,-0.167746 -3.62135,0.696648 -7.20037,1.603639 -10.82146,2.302933 -0.35375,0.06826 -0.7239,0.0426 -1.08135,-0.0045 -0.10266,-0.01349 -0.16563,-0.217487 -0.25877,-0.172244 -0.0833,0.04075 0.12965,0.221457 0.0527,0.27305 -0.26168,0.17489 -0.59188,0.219075 -0.898,0.2921 -3.61236,0.861748 -7.248524,1.623748 -10.854534,2.51169 -0.8726,0.214842 -1.69783,0.605102 -2.57625,0.795073 -0.10927,0.02355 -0.17621,-0.202936 -0.28469,-0.176742 -5.40279,1.309684 -10.77595,2.738434 -16.15017,4.160574 -0.18018,0.0476 -0.31617,0.22807 -0.50165,0.2458 -0.10848,0.0106 -0.17356,-0.19685 -0.2794,-0.17039 -0.28839,0.0722 -0.49053,0.36115 -0.7784,0.4355 -0.10292,0.0265 -0.16801,-0.18336 -0.27252,-0.16484 -0.14076,0.0254 -0.20056,0.21511 -0.33152,0.27305 -0.40138,0.17701 -0.81333,0.35058 -1.24593,0.4236 -0.10557,0.0177 -0.16721,-0.16563 -0.27437,-0.16721 -0.10266,-0.002 -0.16166,0.15292 -0.26405,0.15795 -0.0833,0.004 -0.13071,-0.15822 -0.21088,-0.13494 -0.17674,0.0516 -0.27543,0.25586 -0.44556,0.32624 -0.05,0.0206 -0.0902,-0.10901 -0.13864,-0.0844 -0.20108,0.10186 -0.31326,0.35427 -0.52837,0.42254 -0.0984,0.0315 -0.1561,-0.1532 -0.2577,-0.17251 -0.23284,-0.0439 -0.48393,-0.0802 -0.71041,-0.0109 -0.1942,0.0593 -0.28787,0.30876 -0.47969,0.37465 -0.10319,0.0354 -0.21193,-0.14896 -0.31062,-0.10293 -0.19447,0.0907 -0.24739,0.39344 -0.45191,0.45879 -0.14922,0.0474 -0.27966,-0.18521 -0.43603,-0.17595 -0.0836,0.005 -0.0643,0.17039 -0.13811,0.20982 -0.37439,0.19843 -0.75804,0.40851 -1.17449,0.48604 -0.15901,0.0296 -0.28998,-0.21511 -0.44847,-0.18415 -0.19764,0.0389 -0.28892,0.30294 -0.47995,0.36671 -0.10345,0.0347 -0.21193,-0.14896 -0.31062,-0.10292 -0.19447,0.0907 -0.24739,0.3937 -0.45191,0.45878 -0.14923,0.0474 -0.2802,-0.19685 -0.43577,-0.17621 -0.14446,0.0188 -0.20055,0.2286 -0.33787,0.27781 -0.99722,0.35772 -2.04047,0.5768 -3.03795,0.93345 -0.13335,0.0476 -0.18838,0.24554 -0.32782,0.26988 -0.10451,0.0185 -0.16986,-0.19209 -0.27252,-0.16457 -0.28654,0.0767 -0.48075,0.38444 -0.77152,0.44423 -0.18654,0.0386 -0.35825,-0.21246 -0.54478,-0.1733 -0.0921,0.0196 0.12329,0.21405 0.0537,0.27702 -0.23098,0.20929 -0.53314,0.33629 -0.83106,0.42783 -0.17568,0.054 -0.37174,0.0355 -0.55139,-0.003 -0.10133,-0.022 -0.18653,-0.24659 -0.25876,-0.17224 -0.10001,0.10319 0.13599,0.36671 0.008,0.431 -0.16748,0.0839 -0.35004,-0.18203 -0.53657,-0.16615 -0.0884,0.007 -0.0654,0.18309 -0.1442,0.2241 -0.72126,0.37544 -1.4433,0.77258 -2.22171,1.00727 -0.1823,0.055 -0.36618,-0.24157 -0.54398,-0.17331 -0.3265,0.12542 -0.47943,0.53288 -0.79322,0.68739 -0.0923,0.0455 -0.15955,-0.1389 -0.25771,-0.16986 -0.0884,-0.028 -0.20531,-0.0569 -0.27834,5.3e-4 -0.2331,0.18309 -0.31908,0.53261 -0.57943,0.67442 -0.12039,0.0653 -0.24871,-0.18335 -0.3818,-0.15134 -0.19658,0.0474 -0.30956,0.26485 -0.48736,0.36089 -0.0278,0.0153 -0.0519,-0.0735 -0.0778,-0.055 -0.14393,0.10213 -0.21008,0.30851 -0.37333,0.37571 -0.0772,0.0318 -0.13308,-0.1651 -0.21113,-0.13494 -0.21008,0.0818 -0.31433,0.35137 -0.52811,0.42254 -0.0976,0.0325 -0.17304,-0.20426 -0.26511,-0.15822 -0.6604,0.3302 -1.18984,0.88874 -1.85156,1.21656 -0.0953,0.0471 -0.1696,-0.19024 -0.27252,-0.16458 -0.26299,0.0653 -0.48498,0.24739 -0.70406,0.40693 -0.22172,0.16166 -0.36062,0.43921 -0.61092,0.55139 -0.0939,0.0421 -0.1643,-0.13784 -0.26511,-0.15822 -0.0484,-0.0101 -0.0939,0.0407 -0.12515,0.0791 -0.10954,0.13468 -0.1651,0.31248 -0.29104,0.43207 -0.18759,0.17806 -0.38735,0.36989 -0.63447,0.44688 -0.10107,0.0315 -0.17172,-0.1987 -0.27226,-0.16431 -0.21431,0.0733 -0.32041,0.33126 -0.52123,0.43657 -0.13149,0.0685 -0.32014,-0.0214 -0.44,0.0659 -0.19817,0.14499 -0.26114,0.42651 -0.44979,0.58393 -0.34025,0.28469 -0.78925,0.42492 -1.11601,0.72496 -0.22384,0.20532 -0.28602,0.54716 -0.50218,0.76068 -0.0759,0.0749 -0.22781,-0.0116 -0.31644,0.0476 -0.17992,0.12065 -0.24633,0.39952 -0.45218,0.46699 -0.14896,0.0487 -0.29448,-0.24288 -0.43629,-0.17621 -0.10637,0.0503 0.10265,0.22834 0.0802,0.34369 -0.0312,0.16034 -0.11641,0.31565 -0.23098,0.43207 -0.1815,0.18441 -0.38735,0.36989 -0.63447,0.44688 -0.10133,0.0318 -0.16986,-0.13891 -0.27305,-0.16431 -0.0357,-0.009 -0.0876,0.0426 -0.0781,0.0781 0.0272,0.0995 0.13917,0.16007 0.16986,0.25849 0.0275,0.0886 0.0577,0.2077 -0.002,0.27887 -0.22304,0.26485 -0.5752,0.40111 -0.79534,0.66861 -0.28813,0.35057 -0.57388,0.72892 -0.71014,1.16178 -0.0571,0.18151 0.19579,0.35481 0.1733,0.54372 -0.0169,0.14473 -0.20822,0.20929 -0.27754,0.33734 -0.16775,0.31089 -0.38603,0.61913 -0.42757,0.96997 -0.11404,0.96811 -0.12753,1.95421 -0.0318,2.92444 0.0537,0.54372 0.27067,1.0623 0.47519,1.56898 0.21484,0.53234 0.48234,1.04404 0.77867,1.53564 0.49027,0.8128 0.9906,1.62507 1.57745,2.37119 0.3929,0.49954 0.86995,0.92922 1.34805,1.34806 0.20981,0.18388 0.50112,0.26061 0.70511,0.45085 0.35375,0.33046 0.60881,0.75512 0.95224,1.09643 0.30268,0.30136 0.61754,0.59902 0.97975,0.8255 0.70908,0.44318 1.51606,0.71808 2.21774,1.17343 0.18865,0.1225 0.23257,0.39846 0.41248,0.5334 0.0497,0.0376 0.0966,-0.13732 0.1524,-0.10901 0.15743,0.0794 0.2159,0.2958 0.37359,0.37465 0.0569,0.0286 0.0987,-0.13864 0.15558,-0.11007 0.15769,0.0789 0.2159,0.29581 0.37359,0.37465 0.0569,0.0286 0.0987,-0.13864 0.15558,-0.11007 0.15769,0.0788 0.2159,0.29581 0.37359,0.37465 0.0569,0.0283 0.0987,-0.13864 0.15557,-0.11006 0.15769,0.0791 0.20902,0.31062 0.37333,0.37571 0.0807,0.032 0.13494,-0.16537 0.21828,-0.14129 0.26035,0.0749 0.48604,0.24527 0.70379,0.40666 0.22093,0.16378 0.34317,0.47493 0.60405,0.56277 0.18044,0.0609 0.36115,-0.23045 0.54372,-0.17595 0.59081,0.17675 1.07923,0.60484 1.65205,0.83291 1.21391,0.48313 2.44766,0.92022 3.69861,1.29725 1.35255,0.4072 2.73077,0.72549 4.10475,1.05331 1.07024,0.25506 2.13836,0.53419 3.22686,0.6948 0.11059,0.0164 0.1733,-0.18415 0.28469,-0.17648 0.3175,0.0214 0.6051,0.20876 0.91943,0.2585 2.54158,0.4019 5.08344,0.81597 7.64143,1.09537 3.65733,0.39979 7.32631,0.69348 10.99714,0.94113 0.10795,0.007 0.16616,-0.14738 0.26855,-0.18124 0.0884,-0.0291 0.18944,-0.0243 0.27914,0 0.1823,0.05 0.3339,0.2159 0.52281,0.21907 4.14417,0.0699 8.28966,0.0699 12.43383,0 0.18892,-0.003 0.33391,-0.21272 0.52282,-0.21907 0.18653,-0.006 0.34449,0.15795 0.52943,0.18388 M 137.82462,92.828332 v 0 c -0.11297,-0.04366 -0.21801,-0.129117 -0.33919,-0.13044 -0.1225,-0.0013 -0.34555,7.94e-4 -0.34634,0.123296 -0.001,0.121973 0.22225,0.122502 0.34422,0.12356 M 99.444956,143.68707 v 0 c 0.593464,-0.13997 1.175014,-0.34555 1.780124,-0.41963 0.10662,-0.013 0.16774,0.16642 0.27516,0.16827 0.10266,0.002 0.16193,-0.16113 0.26459,-0.15822 0.10318,0.003 0.15769,0.14632 0.2577,0.17225 0.17277,0.0452 0.35851,0.0635 0.53499,0.0349 0.18732,-0.0304 0.34078,-0.19897 0.53022,-0.20717 0.10319,-0.005 0.15558,0.1561 0.25771,0.17224 0.35083,0.0561 0.70987,0.0389 1.06521,0.0389 0.17912,0 0.36301,0.007 0.53605,-0.0389 0.0997,-0.0265 0.15425,-0.1696 0.2577,-0.17224 0.10266,-0.003 0.16192,0.16404 0.26458,0.15822 0.18865,-0.0106 0.34026,-0.2032 0.52917,-0.2032 0.18891,0 0.34025,0.19579 0.52917,0.2032 0.10318,0.004 0.15557,-0.15637 0.2577,-0.17251 0.35057,-0.055 0.71147,-0.0746 1.06415,-0.0349 0.19236,0.0217 0.34767,0.24262 0.53923,0.21537 0.46222,-0.0659 0.85142,-0.43047 1.3155,-0.48022 1.05146,-0.11244 2.11641,-0.0532 3.17262,2.7e-4 0.16987,0.009 0.30771,0.21034 0.47599,0.18441 0.1815,-0.0281 0.27358,-0.25876 0.44423,-0.32676 0.0638,-0.0257 0.12489,0.0781 0.19368,0.0717 2.18572,-0.1987 4.3598,-0.52334 6.5487,-0.685 0.11245,-0.008 0.17436,0.18997 0.28681,0.18018 1.93992,-0.16881 3.85868,-0.54002 5.79861,-0.70935 0.11192,-0.01 0.17462,0.19526 0.28601,0.17886 0.53552,-0.0786 1.02341,-0.38259 1.56078,-0.44953 0.19394,-0.0243 0.36221,0.21087 0.55615,0.18547 1.15359,-0.1516 2.26642,-0.54292 3.41842,-0.70749 0.11112,-0.0159 0.17436,0.19288 0.28575,0.17859 2.42914,-0.31194 4.84267,-0.73739 7.25699,-1.1475 1.973,-0.33496 3.95208,-0.64823 5.90444,-1.08796 3.19167,-0.71941 6.36006,-1.5412 9.52024,-2.3876 1.17793,-0.31565 2.354,-0.65405 3.49012,-1.09776 1.59464,-0.62283 3.19828,-1.25439 4.68868,-2.09656 1.32212,-0.74718 2.50216,-1.72402 3.70708,-2.64821 0.11694,-0.0897 0.12991,-0.27067 0.23415,-0.37492 0.70141,-0.70114 1.49702,-1.30677 2.17382,-2.03147 0.38947,-0.41725 0.7366,-0.88133 1.01256,-1.38086 0.39291,-0.71146 0.73051,-1.45891 0.98213,-2.23176 0.0331,-0.10133 -0.17171,-0.16695 -0.16615,-0.27358 0.01,-0.18944 0.19685,-0.34052 0.20743,-0.53022 0.0487,-0.8853 0.10768,-1.78435 -0.0318,-2.66039 -0.0987,-0.62124 -0.41355,-1.19009 -0.67178,-1.76398 -0.32279,-0.71781 -0.67601,-1.42372 -1.06865,-2.10608 -0.31777,-0.55139 -0.67654,-1.08003 -1.05886,-1.58856 -0.42096,-0.56012 -0.85355,-1.11627 -1.34806,-1.61263 -0.19632,-0.19712 -0.48709,-0.27385 -0.70432,-0.44768 -0.22674,-0.1815 -0.38232,-0.44556 -0.62044,-0.61171 -0.94271,-0.65776 -1.89865,-1.30413 -2.90989,-1.85156 -1.67455,-0.90672 -3.43747,-1.64094 -5.1353,-2.50375 -0.12991,-0.0661 -0.19473,-0.2495 -0.33761,-0.27755 -0.1008,-0.0201 -0.16907,0.19632 -0.26485,0.15822 -0.48074,-0.19103 -0.8546,-0.59901 -1.33402,-0.79375 -2.35321,-0.95594 -4.74954,-1.80287 -7.14375,-2.65006 -0.8898,-0.31486 -1.79547,-0.585 -2.70563,-0.83503 -1.43352,-0.39396 -2.87258,-0.77152 -4.32356,-1.0959 -1.72376,-0.38524 -3.45096,-0.76809 -5.19747,-1.03267 -2.52069,-0.38206 -5.05566,-0.67231 -7.5946,-0.90593 -0.11272,-0.0103 -0.1741,0.186 -0.28708,0.18123 -1.93648,-0.0844 -3.86159,-0.35798 -5.79808,-0.44608 -0.10795,-0.005 -0.16801,0.17489 -0.27596,0.16986 -0.18944,-0.009 -0.34078,-0.19367 -0.53022,-0.20743 -0.79137,-0.0574 -1.58671,-0.0127 -2.38019,-0.004 -0.26723,0.003 -0.53843,-0.0116 -0.80063,0.0392 -0.18521,0.0357 -0.33364,0.21484 -0.52229,0.21722 -0.18891,0.003 -0.34025,-0.19526 -0.52917,-0.2032 -0.10266,-0.005 -0.15928,0.13891 -0.25744,0.16986 -0.0886,0.028 -0.19103,0.0302 -0.27887,0 -0.0974,-0.0333 -0.15266,-0.14737 -0.24976,-0.18124 -0.091,-0.0318 -0.19289,-0.0138 -0.28893,-0.007 -2.01983,0.14208 -4.03463,0.36248 -6.05737,0.45297 -0.10795,0.005 -0.16801,-0.16986 -0.27596,-0.16986 -0.10292,0 -0.15928,0.1389 -0.25744,0.16986 -0.0886,0.0281 -0.19076,0.0291 -0.27914,0 -0.10239,-0.0339 -0.16086,-0.19024 -0.26828,-0.18098 -4.13862,0.35402 -8.27511,0.74851 -12.396794,1.26418 -0.53393,0.0669 -1.04696,0.26723 -1.54146,0.47969 -0.2884,0.12383 -0.54478,0.31803 -0.78529,0.51991 -0.25902,0.21722 -0.5035,0.45773 -0.70432,0.72998 -0.0542,0.0735 -0.0349,0.18071 -0.0349,0.27253 0,0.17859 -0.0362,0.37121 0.0349,0.53498 0.0662,0.15161 0.21008,0.26379 0.35084,0.35058 0.0778,0.0484 0.18098,0.0349 0.27252,0.0352 0.18098,5.2e-4 0.37597,0.0389 0.5424,-0.0323 0.31723,-0.13547 0.55959,-0.4072 0.86386,-0.56939 0.33999,-0.18124 0.68474,-0.37835 1.06204,-0.45667 0.96414,-0.20082 1.95051,-0.27781 2.930524,-0.37412 1.97644,-0.1942 3.95605,-0.36036 5.93725,-0.49768 3.80418,-0.26326 7.6081,-0.54425 11.41783,-0.70353 0.18865,-0.008 0.33973,0.19526 0.52838,0.20347 0.10265,0.004 0.15451,-0.16987 0.25744,-0.16987 0.18732,0 0.34898,0.17648 0.53631,0.16987 0.1897,-0.007 0.34078,-0.19606 0.52996,-0.20744 0.96784,-0.0585 1.94098,-0.0585 2.90856,0 0.18944,0.0114 0.34078,0.19844 0.53023,0.20744 0.10768,0.005 0.16801,-0.17701 0.27569,-0.16934 1.23323,0.0857 2.44872,0.35904 3.68194,0.44503 0.10742,0.007 0.16775,-0.1696 0.2757,-0.16933 0.10266,0 0.15928,0.13891 0.25744,0.16986 0.0886,0.0281 0.1905,0.0291 0.27887,0 0.10239,-0.0339 0.16113,-0.19103 0.26829,-0.18044 0.79639,0.0799 1.56316,0.36406 2.35955,0.44397 0.11192,0.0111 0.17489,-0.1958 0.28602,-0.17913 3.36391,0.50403 6.72623,1.03929 10.05707,1.72853 2.35585,0.48762 4.70112,1.05595 6.98924,1.79916 2.89454,0.94007 5.72188,2.08122 8.53493,3.243 1.24751,0.51541 2.43734,1.16179 3.63537,1.78382 1.00409,0.5215 2.02221,1.02553 2.96863,1.64544 1.10463,0.72338 2.16296,1.52162 3.1697,2.3757 0.19791,0.16774 0.24765,0.45879 0.41011,0.66093 0.2032,0.25267 0.5072,0.42095 0.68104,0.69479 0.60748,0.95727 1.15226,1.9558 1.64861,2.97498 0.26221,0.53922 0.51832,1.09723 0.62098,1.68778 0.10769,0.61886 0.0863,1.26206 0,1.88409 -0.0622,0.45112 -0.24236,0.88265 -0.43947,1.29329 -0.29766,0.62018 -0.66331,1.20676 -1.03743,1.78382 -0.18098,0.27913 -0.39,0.54239 -0.62416,0.77867 -0.25955,0.26193 -0.60007,0.43709 -0.84957,0.70829 -0.17569,0.19076 -0.21299,0.49239 -0.41011,0.66092 -0.42545,0.36381 -0.9689,0.56568 -1.41684,0.90144 -0.25956,0.19447 -0.42783,0.49715 -0.6948,0.68104 -0.60986,0.41963 -1.25756,0.78555 -1.91902,1.11839 -0.92445,0.46514 -1.86558,0.90144 -2.83183,1.27238 -1.2999,0.49874 -2.6162,0.96388 -3.9587,1.3335 -3.13029,0.86149 -6.29126,1.60946 -9.45092,2.35691 -1.49145,0.35269 -2.98635,0.70115 -4.4995,0.94298 -0.11086,0.0177 -0.17489,-0.19527 -0.28575,-0.17833 -1.93543,0.29712 -3.83434,0.80354 -5.76871,1.10754 -4.05739,0.63791 -8.12509,1.21471 -12.20153,1.71715 -0.10689,0.013 -0.16589,-0.14684 -0.26828,-0.18045 -0.0884,-0.0291 -0.19103,-0.0304 -0.27887,0 -0.0979,0.0341 -0.14923,0.16272 -0.25056,0.18389 -0.26115,0.0545 -0.53526,0.0712 -0.79984,0.0352 -0.27517,-0.0376 -0.51673,-0.24606 -0.79454,-0.25241 -0.27649,-0.007 -0.52467,0.20611 -0.80116,0.21484 -0.10769,0.003 -0.1606,-0.18918 -0.26829,-0.18071 -1.05833,0.0815 -2.09444,0.3638 -3.15277,0.4445 -0.10822,0.008 -0.16405,-0.15478 -0.26882,-0.18336 -0.17224,-0.0468 -0.35692,-0.055 -0.53419,-0.0349 -1.1475,0.12965 -2.27965,0.3855 -3.43033,0.48287 -0.10742,0.009 -0.16801,-0.16696 -0.27569,-0.16934 -0.10293,-0.002 -0.16193,0.1606 -0.26459,0.15849 -0.10768,-0.002 -0.16827,-0.17992 -0.27543,-0.16881 -0.79613,0.0831 -1.56369,0.36089 -2.35955,0.44397 -0.10716,0.0111 -0.16775,-0.16695 -0.27543,-0.16906 -0.10266,-0.002 -0.16193,0.16086 -0.26459,0.15848 -0.10266,-0.002 -0.15901,-0.13811 -0.25664,-0.1696 -0.0918,-0.0296 -0.19368,-0.0193 -0.28919,-0.007 -1.04934,0.13838 -2.08624,0.38153 -3.14166,0.45879 -0.19553,0.0143 -0.36143,-0.19579 -0.55722,-0.18785 -1.93675,0.0788 -3.86159,0.35798 -5.798084,0.44608 -0.10795,0.005 -0.16801,-0.17012 -0.27596,-0.17012 -0.10265,2.6e-4 -0.15928,0.13917 -0.25744,0.17012 -0.0886,0.028 -0.19103,0.0302 -0.27887,0 -0.0976,-0.0336 -0.15293,-0.14816 -0.25029,-0.1815 -0.0878,-0.0302 -0.19024,-0.028 -0.27887,0 -0.0982,0.031 -0.15478,0.16748 -0.25744,0.16986 -0.10266,0.002 -0.16193,-0.16457 -0.26459,-0.15822 -0.18944,0.0116 -0.34131,0.18891 -0.53022,0.20743 -0.52599,0.0516 -1.05939,0.0516 -1.58565,0 -0.18865,-0.0185 -0.34052,-0.19579 -0.52996,-0.20743 -0.10266,-0.006 -0.16166,0.15822 -0.26458,0.15822 -0.10293,0 -0.16193,-0.16404 -0.26459,-0.15822 -0.18864,0.0106 -0.34025,0.2032 -0.52916,0.2032 -0.18892,0 -0.34052,-0.19262 -0.52917,-0.2032 -0.10266,-0.006 -0.16192,0.15822 -0.26458,0.15822 -0.10293,0 -0.16193,-0.1606 -0.26459,-0.15822 -0.10292,0.002 -0.15928,0.13891 -0.25744,0.16986 -0.0886,0.028 -0.19023,0.028 -0.27887,0 -0.0982,-0.031 -0.15478,-0.17012 -0.25744,-0.16986 -0.10821,0 -0.16801,0.17383 -0.27596,0.16986 -4.24047,-0.14763 -8.48016,-0.34131 -12.71376,-0.62256 -2.02062,-0.13415 -4.02272,-0.48948 -6.04361,-0.62336 -0.195,-0.013 -0.36221,0.20902 -0.55615,0.18547 -0.53869,-0.0651 -1.02976,-0.36486 -1.56686,-0.44185 -0.1106,-0.0159 -0.17463,0.19526 -0.2847,0.17648 -0.97631,-0.16537 -1.90526,-0.56277 -2.88395,-0.71359 -0.19262,-0.0296 -0.36301,0.21776 -0.55484,0.18336 -0.80883,-0.14446 -1.55654,-0.54292 -2.36193,-0.70458 -0.10848,-0.022 -0.17515,0.20055 -0.28258,0.17409 -0.28866,-0.0712 -0.49,-0.3638 -0.7784,-0.4355 -0.10292,-0.0257 -0.16404,0.14314 -0.26458,0.17595 -0.091,0.0296 -0.19844,0.0405 -0.28681,0.004 -0.27411,-0.11404 -0.48445,-0.36963 -0.77153,-0.44424 -0.10583,-0.0275 -0.17383,0.19738 -0.27993,0.17092 -0.28839,-0.0722 -0.49,-0.36327 -0.7784,-0.4355 -0.1061,-0.0265 -0.17621,0.20531 -0.27966,0.17092 -0.46911,-0.15637 -0.83979,-0.54134 -1.3081,-0.70009 -0.10028,-0.0339 -0.16801,0.18389 -0.27226,0.16457 -0.14314,-0.0265 -0.20849,-0.20928 -0.33708,-0.27755 -0.31274,-0.16563 -0.6313,-0.3384 -0.97605,-0.41777 -0.0849,-0.0193 -0.1389,0.17753 -0.21854,0.14287 -0.17886,-0.0778 -0.22252,-0.36539 -0.41064,-0.41672 -0.15557,-0.0423 -0.28866,0.20955 -0.44767,0.18336 -0.34952,-0.0574 -0.66358,-0.25241 -0.97658,-0.41804 -0.12859,-0.068 -0.19606,-0.24051 -0.33655,-0.27702 -0.081,-0.0209 -0.13388,0.16695 -0.21114,0.13494 -0.16324,-0.0677 -0.20875,-0.31115 -0.37279,-0.37677 -0.0778,-0.031 -0.12383,0.1225 -0.204,0.14658 -0.0889,0.0265 -0.19923,0.0463 -0.27834,-0.002 -0.0836,-0.0511 -0.0717,-0.19024 -0.14446,-0.25585 -0.19209,-0.17331 -0.38762,-0.37016 -0.63474,-0.44689 -0.10107,-0.0318 -0.17118,0.19685 -0.27199,0.16431 -0.21484,-0.0691 -0.31856,-0.34025 -0.52837,-0.42254 -0.077,-0.0302 -0.14208,0.18336 -0.20823,0.13388 -0.27305,-0.20426 -0.37703,-0.59108 -0.65934,-0.78264 -0.40984,-0.27834 -0.92366,-0.3638 -1.36393,-0.59108 -1.00806,-0.5199 -2.0148,-1.04748 -2.97709,-1.64809 -0.11853,-0.0741 -0.11642,-0.26828 -0.22834,-0.35216 -0.60219,-0.45164 -1.27423,-0.80327 -1.88991,-1.23666 -0.0717,-0.0503 -0.16061,-0.11986 -0.16114,-0.20743 -7.9e-4,-0.10293 0.13441,-0.16484 0.1577,-0.26512 0.008,-0.0357 -0.0421,-0.0862 -0.0778,-0.078 -0.10028,0.0236 -0.16484,0.13785 -0.26591,0.15822 -0.0484,0.01 -0.09,-0.0447 -0.12541,-0.0791 -0.47546,-0.46117 -0.96388,-0.91069 -1.40494,-1.40493 -0.29395,-0.32941 -0.57044,-0.67945 -0.79454,-1.05993 -0.39846,-0.67548 -0.72761,-1.38985 -1.0668,-2.09682 -0.15293,-0.31882 -0.34237,-0.63182 -0.40905,-0.97922 -0.0839,-0.43815 -0.0352,-0.89218 -0.0352,-1.33826 0,-0.1823 -0.0193,-0.37148 0.0347,-0.54531 0.18627,-0.59716 0.41196,-1.18375 0.68025,-1.7489 0.13599,-0.28654 0.30347,-0.56673 0.52625,-0.79242 0.19236,-0.19474 0.49848,-0.24792 0.69215,-0.44159 0.18124,-0.18124 0.22199,-0.47361 0.40376,-0.65432 0.19526,-0.1942 0.49106,-0.26008 0.69797,-0.44159 0.51911,-0.45587 0.91493,-1.04933 1.46923,-1.46129 0.10663,-0.0791 0.26247,0.11351 0.39105,0.0789 0.0849,-0.023 0.0685,-0.17516 0.14288,-0.22278 0.60881,-0.38762 1.279,-0.67363 1.88304,-1.06839 0.16589,-0.10822 0.23812,-0.33205 0.41063,-0.42995 0.0548,-0.031 0.0976,0.13811 0.15399,0.1098 0.15769,-0.0796 0.21008,-0.3085 0.37333,-0.3757 0.0773,-0.032 0.13044,0.15478 0.2114,0.13467 0.0855,-0.0212 0.0693,-0.17383 0.14261,-0.22225 0.54822,-0.36354 1.09511,-0.74375 1.70074,-1.00013 0.0976,-0.0413 0.17489,0.20638 0.27226,0.16457 0.24606,-0.10556 0.35507,-0.42201 0.59637,-0.53736 1.33588,-0.63818 2.74637,-1.10808 4.10078,-1.7063 0.56197,-0.24818 1.06415,-0.63183 1.64544,-0.83132 0.10319,-0.0354 0.17595,0.20531 0.2794,0.17065 1.78699,-0.59557 3.48985,-1.4269 5.27685,-2.02247 0.10345,-0.0347 0.1733,0.19632 0.2794,0.17039 0.48313,-0.118 0.90487,-0.41778 1.37663,-0.5752 1.81742,-0.60617 3.63511,-1.21894 5.48613,-1.71371 0.1061,-0.0283 0.17172,0.18494 0.28099,0.17224 0.20214,-0.0238 0.35507,-0.20558 0.54822,-0.27014 0.77337,-0.25849 1.54516,-0.53816 2.345,-0.69691 0.10901,-0.0217 0.17647,0.20558 0.28337,0.17515 0.55165,-0.15663 1.0197,-0.54398 1.57109,-0.70141 0.10557,-0.0302 0.17383,0.19712 0.28099,0.17225 1.26921,-0.29528 2.48655,-0.78396 3.74835,-1.1094 3.98092,-1.02658 7.99253,-1.9304 11.9761,-2.94587 1.02315,-0.26088 2.00951,-0.66278 3.04218,-0.88239 0.10848,-0.023 0.17489,0.19871 0.28337,0.17516 1.16893,-0.25347 2.30955,-0.62627 3.4507,-0.98478 0.17674,-0.0558 0.30956,-0.2413 0.49477,-0.25479 0.19235,-0.0138 0.36248,0.22225 0.55059,0.17912 0.99166,-0.22622 1.907394,-0.719934 2.894284,-0.965731 0.10769,-0.02672 0.17489,0.198437 0.28337,0.175154 1.15861,-0.248709 2.26192,-0.718344 3.42,-0.969963 0.10451,-0.02275 0.16775,0.177006 0.27438,0.167217 0.16404,-0.01455 0.30744,-0.128588 0.43629,-0.230981 0.17093,-0.135732 0.23813,-0.428096 0.45138,-0.474398 0.23998,-0.05186 0.45747,0.193939 0.70062,0.225425 0.26776,0.0344 0.54478,0.02434 0.80883,-0.03122 0.70168,-0.146844 1.37107,-0.426244 2.07275,-0.572294 5.01253,-1.042194 10.0502,-1.960562 15.06511,-2.991114 0.81068,-0.166423 1.59332,-0.461698 2.40929,-0.599811 0.49795,-0.08414 1.02394,0.06112 1.51342,-0.06297 0.19076,-0.04842 0.23072,-0.343958 0.4101,-0.424656 0.0765,-0.0344 0.11986,0.13679 0.20294,0.148961 0.26617,0.03916 0.55139,0.08387 0.80698,-2.65e-4 0.21563,-0.07064 0.30744,-0.363273 0.52229,-0.436563 0.0971,-0.03334 0.15451,0.169863 0.25744,0.169863 0.18759,0 0.34872,-0.170392 0.53631,-0.169863 0.10345,2.65e-4 0.15663,0.150548 0.2577,0.172244 0.17912,0.03863 0.55272,0.184944 0.5498,0.0016 -0.004,-0.239448 -0.54953,-0.214842 -0.55668,-0.45429 -0.006,-0.180975 0.36354,-0.06456 0.54187,-0.03307 0.18653,0.03307 0.33734,0.186002 0.52334,0.221192 0.23178,0.04392 0.48419,0.08864 0.7075,0.01217 0.24474,-0.08361 0.37333,-0.388938 0.61992,-0.466461 0.10239,-0.03228 0.15557,0.165365 0.26008,0.189707 0.17622,0.04075 0.38603,0.08678 0.5424,-0.004 0.0818,-0.04736 -0.14288,-0.23839 -0.0569,-0.277813 0.50906,-0.232833 1.07183,-0.332316 1.62164,-0.43815 0.26511,-0.05133 0.54107,-0.06191 0.80909,-0.03069 0.27543,0.03228 0.5289,0.265906 0.80195,0.21881 0.22384,-0.03863 0.29528,-0.387879 0.51462,-0.445558 0.1815,-0.04763 0.3548,0.215106 0.53657,0.169598 0.21961,-0.05477 0.30189,-0.381794 0.52176,-0.434182 0.18177,-0.04339 0.34449,0.158221 0.5297,0.183621 0.2667,0.03651 0.55192,0.08387 0.80751,-2.64e-4 0.21563,-0.07064 0.30718,-0.363802 0.52202,-0.436563 0.0979,-0.03334 0.1569,0.150548 0.25797,0.172244 0.177,0.0381 0.37623,0.07038 0.54292,-2.65e-4 0.20955,-0.0889 0.29184,-0.40296 0.51488,-0.447939 0.27067,-0.05477 0.53711,0.232568 0.8083,0.180975 0.22225,-0.04233 0.30824,-0.359304 0.52176,-0.434182 0.0971,-0.03413 0.16193,0.158221 0.26485,0.158221 0.10292,0 0.16192,-0.159543 0.26458,-0.158485 0.1061,0.0013 0.1696,0.192352 0.27226,0.164835 0.28654,-0.07673 0.48022,-0.386821 0.77152,-0.4445 0.1905,-0.03757 0.36222,0.216694 0.55351,0.182563 0.80857,-0.145256 1.55602,-0.543984 2.36167,-0.705379 0.10478,-0.0209 0.1651,0.144991 0.2667,0.178593 0.0913,0.03043 0.19474,0.02699 0.2884,0.0056 1.31948,-0.303477 2.61197,-0.726282 3.94229,-0.97843 0.11007,-0.0209 0.17515,0.197909 0.28522,0.177271 1.33218,-0.249502 2.61647,-0.720196 3.94864,-0.970491 0.10504,-0.01958 0.1651,0.145256 0.2667,0.178593 0.091,0.03016 0.195,0.02911 0.28787,0.0048 0.25585,-0.06694 0.48551,-0.220133 0.74427,-0.274902 1.35811,-0.288661 2.74823,-0.422275 4.09681,-0.753798 0.21114,-0.05186 0.43101,-0.188383 0.52784,-0.383117 0.10425,-0.209814 0.12092,-0.4953 0.0122,-0.702998 -0.11907,-0.227541 -0.37333,-0.385762 -0.62019,-0.457464 -0.3429,-0.09948 -0.71649,-0.07805 -1.0705,-0.03281 -2.2098,0.281782 -4.3942,0.744803 -6.60559,1.012032 -0.11165,0.01376 -0.17436,-0.192088 -0.28628,-0.179123 -0.70776,0.08123 -1.38509,0.343429 -2.08941,0.451908 -0.26908,0.04154 -0.54822,0.03969 -0.81704,-0.0048 -0.10213,-0.01667 -0.15584,-0.188913 -0.25797,-0.172244 -0.13811,0.02222 -0.1897,0.227277 -0.32385,0.266964 -0.66886,0.19685 -1.35334,0.356394 -2.04655,0.430742 -0.10742,0.01138 -0.16166,-0.164306 -0.26828,-0.182827 -0.26829,-0.04604 -0.54849,-0.05001 -0.81704,-0.0042 -4.7617,0.809625 -9.49457,1.784879 -14.26051,2.568045 -0.1106,0.01799 -0.17436,-0.193675 -0.28549,-0.1778 -0.74374,0.104775 -1.45467,0.379413 -2.19127,0.52705 -0.97394,0.194998 -1.96586,0.295805 -2.93794,0.500328 -0.14922,0.03148 -0.25717,0.197643 -0.40984,0.204522 -0.11033,0.0048 -0.17251,-0.188118 -0.28204,-0.174095 -1.26498,0.163248 -2.52122,0.403225 -3.76264,0.695854 -0.51912,0.122502 -0.97684,0.465137 -1.50416,0.545835 -0.27834,0.0426 -0.54451,-0.228335 -0.82365,-0.189706 -0.372,0.05159 -0.66675,0.3683 -1.03372,0.447146 -0.10425,0.02249 -0.17198,-0.198702 -0.27358,-0.166423 -0.21511,0.06879 -0.31406,0.354012 -0.52917,0.423069 -0.0979,0.03148 -0.15452,-0.169863 -0.25744,-0.169863 -0.18759,0 -0.34872,0.169333 -0.53631,0.169863 -0.10742,2.64e-4 -0.16933,-0.188119 -0.2749,-0.167746 -3.62135,0.696648 -7.20037,1.603639 -10.82146,2.302933 -0.35375,0.06826 -0.7239,0.0426 -1.08135,-0.0045 -0.10266,-0.01349 -0.16563,-0.217487 -0.25877,-0.172244 -0.0833,0.04075 0.12965,0.221457 0.0527,0.27305 -0.26168,0.17489 -0.59188,0.219075 -0.898,0.2921 -3.61236,0.861748 -7.248524,1.623748 -10.854534,2.51169 -0.8726,0.214842 -1.69783,0.605102 -2.57625,0.795073 -0.10927,0.02355 -0.17621,-0.202936 -0.28469,-0.176742 -5.40279,1.309692 -10.77595,2.738442 -16.15017,4.160572 -0.18018,0.0476 -0.31617,0.22807 -0.50165,0.2458 -0.10848,0.0106 -0.17356,-0.19685 -0.2794,-0.17039 -0.28839,0.0722 -0.49053,0.36115 -0.7784,0.4355 -0.10292,0.0265 -0.16801,-0.18335 -0.27252,-0.16483 -0.14076,0.0254 -0.20056,0.2151 -0.33152,0.27305 -0.40138,0.177 -0.81333,0.35057 -1.24593,0.42359 -0.10557,0.0177 -0.16721,-0.16562 -0.27437,-0.16721 -0.10266,-0.002 -0.16166,0.15293 -0.26405,0.15795 -0.0833,0.004 -0.13071,-0.15822 -0.21088,-0.13493 -0.17674,0.0516 -0.27543,0.25585 -0.44556,0.32623 -0.05,0.0206 -0.0902,-0.10901 -0.13864,-0.0844 -0.20108,0.10186 -0.31326,0.35427 -0.52837,0.42254 -0.0984,0.0315 -0.1561,-0.1532 -0.2577,-0.17251 -0.23284,-0.0439 -0.48393,-0.0802 -0.71041,-0.0109 -0.1942,0.0593 -0.28787,0.30877 -0.47969,0.37465 -0.10319,0.0354 -0.21193,-0.14896 -0.31062,-0.10292 -0.19447,0.0907 -0.24739,0.39343 -0.45191,0.45878 -0.14922,0.0474 -0.27966,-0.18521 -0.43603,-0.17595 -0.0836,0.005 -0.0643,0.1704 -0.13811,0.20982 -0.37439,0.19844 -0.75804,0.40852 -1.17449,0.48604 -0.15901,0.0296 -0.28998,-0.21511 -0.44847,-0.18415 -0.19764,0.0389 -0.28892,0.30295 -0.47995,0.36671 -0.10345,0.0347 -0.21193,-0.14896 -0.31062,-0.10292 -0.19447,0.0907 -0.24739,0.3937 -0.45191,0.45879 -0.14923,0.0474 -0.2802,-0.19685 -0.43577,-0.17622 -0.14446,0.0188 -0.20055,0.2286 -0.33787,0.27782 -0.99722,0.35771 -2.04047,0.57679 -3.03795,0.93345 -0.13335,0.0476 -0.18838,0.24553 -0.32782,0.26987 -0.10451,0.0185 -0.16986,-0.19209 -0.27252,-0.16457 -0.28654,0.0767 -0.48075,0.38444 -0.77152,0.44424 -0.18654,0.0386 -0.35825,-0.21246 -0.54478,-0.17331 -0.0921,0.0196 0.12329,0.21405 0.0537,0.27702 -0.23098,0.20929 -0.53314,0.33629 -0.83106,0.42783 -0.17568,0.054 -0.37174,0.0355 -0.55139,-0.003 -0.10133,-0.022 -0.18653,-0.24659 -0.25876,-0.17224 -0.10001,0.10319 0.13599,0.36671 0.008,0.43101 -0.16748,0.0839 -0.35004,-0.18204 -0.53657,-0.16616 -0.0884,0.007 -0.0654,0.18309 -0.1442,0.2241 -0.72126,0.37544 -1.4433,0.77258 -2.22171,1.00727 -0.1823,0.055 -0.36618,-0.24157 -0.54398,-0.1733 -0.3265,0.12541 -0.47943,0.53287 -0.79322,0.68738 -0.0923,0.0455 -0.15955,-0.1389 -0.25771,-0.16986 -0.0884,-0.028 -0.20531,-0.0569 -0.27834,5.3e-4 -0.2331,0.18309 -0.31908,0.53261 -0.57943,0.67442 -0.12039,0.0653 -0.24871,-0.18335 -0.3818,-0.15134 -0.19658,0.0474 -0.30956,0.26485 -0.48736,0.36089 -0.0278,0.0153 -0.0519,-0.0735 -0.0778,-0.055 -0.14393,0.10213 -0.21008,0.30851 -0.37333,0.37571 -0.0772,0.0317 -0.13308,-0.1651 -0.21113,-0.13494 -0.21008,0.0818 -0.31433,0.35137 -0.52811,0.42254 -0.0976,0.0325 -0.17304,-0.20425 -0.26511,-0.15822 -0.6604,0.3302 -1.18984,0.88874 -1.85156,1.21656 -0.0953,0.0471 -0.1696,-0.19024 -0.27252,-0.16457 -0.26299,0.0654 -0.48498,0.24738 -0.70406,0.40693 -0.22172,0.16166 -0.36062,0.4392 -0.61092,0.55139 -0.0939,0.0421 -0.1643,-0.13785 -0.26511,-0.15822 -0.0484,-0.0101 -0.0939,0.0407 -0.12515,0.0791 -0.10954,0.13467 -0.1651,0.31247 -0.29104,0.43206 -0.18759,0.17807 -0.38735,0.36989 -0.63447,0.44688 -0.10107,0.0315 -0.17172,-0.1987 -0.27226,-0.1643 -0.21431,0.0733 -0.32041,0.33126 -0.52123,0.43656 -0.13149,0.0685 -0.32014,-0.0214 -0.44,0.0659 -0.19817,0.14499 -0.26114,0.42651 -0.44979,0.58394 -0.34025,0.28469 -0.78925,0.42492 -1.11601,0.72495 -0.22384,0.20532 -0.28602,0.54716 -0.50218,0.76068 -0.0759,0.0749 -0.22781,-0.0116 -0.31644,0.0476 -0.17992,0.12065 -0.24633,0.39952 -0.45218,0.46699 -0.14896,0.0487 -0.29448,-0.24289 -0.43629,-0.17622 -0.10637,0.0503 0.10265,0.22834 0.0802,0.3437 -0.0312,0.16033 -0.11641,0.31564 -0.23098,0.43206 -0.1815,0.18442 -0.38735,0.36989 -0.63447,0.44688 -0.10133,0.0318 -0.16986,-0.1389 -0.27305,-0.1643 -0.0357,-0.009 -0.0876,0.0426 -0.0781,0.0781 0.0272,0.0995 0.13917,0.16007 0.16986,0.2585 0.0275,0.0886 0.0577,0.20769 -0.002,0.27887 -0.22304,0.26485 -0.5752,0.40111 -0.79534,0.6686 -0.28813,0.35057 -0.57388,0.72893 -0.71014,1.16178 -0.0571,0.18151 0.19579,0.35481 0.1733,0.54372 -0.0169,0.14473 -0.20822,0.20929 -0.27754,0.33735 -0.16775,0.31088 -0.38603,0.61912 -0.42757,0.96996 -0.11404,0.96811 -0.12753,1.95421 -0.0318,2.92444 0.0537,0.54372 0.27067,1.0623 0.47519,1.56898 0.21484,0.53234 0.48234,1.04404 0.77867,1.53564 0.49027,0.8128 0.9906,1.62507 1.57745,2.3712 0.3929,0.49953 0.86995,0.92921 1.34805,1.34805 0.20981,0.18388 0.50112,0.26061 0.70511,0.45085 0.35375,0.33046 0.60881,0.75512 0.95224,1.09643 0.30268,0.30136 0.61754,0.59902 0.97975,0.8255 0.70908,0.44318 1.51606,0.71808 2.21774,1.17343 0.18865,0.1225 0.23257,0.39846 0.41248,0.5334 0.0497,0.0376 0.0966,-0.13732 0.1524,-0.10901 0.15743,0.0794 0.2159,0.2958 0.37359,0.37465 0.0569,0.0286 0.0987,-0.13864 0.15558,-0.11007 0.15769,0.0788 0.2159,0.29581 0.37359,0.37465 0.0569,0.0286 0.0987,-0.13864 0.15558,-0.11006 0.15769,0.0788 0.2159,0.2958 0.37359,0.37465 0.0569,0.0283 0.0987,-0.13865 0.15557,-0.11007 0.15769,0.0791 0.20902,0.31062 0.37333,0.37571 0.0807,0.032 0.13494,-0.16537 0.21828,-0.14129 0.26035,0.0749 0.48604,0.24527 0.70379,0.40667 0.22093,0.16377 0.34317,0.47492 0.60405,0.56276 0.18044,0.0609 0.36115,-0.23045 0.54372,-0.17594 0.59081,0.17674 1.07923,0.60483 1.65205,0.8329 1.21391,0.48313 2.44766,0.92023 3.69861,1.29726 1.35255,0.40719 2.73077,0.72548 4.10475,1.0533 1.07024,0.25506 2.13836,0.5342 3.22686,0.6948 0.11059,0.0164 0.1733,-0.18415 0.28469,-0.17648 0.3175,0.0214 0.6051,0.20876 0.91943,0.2585 2.54158,0.4019 5.08344,0.81597 7.64143,1.09537 3.65733,0.39979 7.32631,0.69348 10.99714,0.94113 0.10795,0.007 0.16616,-0.14738 0.26855,-0.18124 0.0884,-0.0291 0.18944,-0.0243 0.27914,0 0.1823,0.05 0.3339,0.2159 0.52281,0.21907 4.14417,0.0699 8.28966,0.0699 12.43383,0 0.18892,-0.003 0.33391,-0.21272 0.52282,-0.21907 0.18653,-0.006 0.34449,0.15795 0.52943,0.18388 M 137.82527,92.828464 v 0 c -0.11297,-0.04366 -0.21801,-0.129117 -0.33919,-0.13044 -0.1225,-0.0013 -0.34555,7.94e-4 -0.34634,0.123296 -10e-4,0.121973 0.22225,0.122502 0.34422,0.12356"
       style="fill:#cccccc;fill-opacity:1;stroke-width:0.264583"
       id="path4001" />
  </g>
</svg>
