<?xml version="1.0" encoding="UTF-8" standalone="no"?>
<svg
   width="1088.9042"
   height="102.94855"
   viewBox="0 0 1088.9042 102.94855"
   version="1.2"
   id="svg286"
   xmlns="http://www.w3.org/2000/svg"
   xmlns:svg="http://www.w3.org/2000/svg"
   xmlns:rdf="http://www.w3.org/1999/02/22-rdf-syntax-ns#"
   xmlns:cc="http://creativecommons.org/ns#"
   xmlns:dc="http://purl.org/dc/elements/1.1/">
  <defs
     id="defs290" />
  <title
     id="title278">Stuff</title>
  <path
     fill="#000000"
     d="m 1088.7723,24.678136 v 0 c 0,-0.7 0.29,-1.47 0.01,-2.12 -0.55,-1.3 -1.25,-2.67 -2.4,-3.48 -1.58,-1.12 -3.55,-1.65 -5.45,-2.06 -7.09,-1.54 -14.25,-2.8 -21.45,-3.78 -2.33,-0.32 -4.71,-0.3 -7.06,-0.11 -0.73,0.05 -1.31,0.92 -2.03,0.81 -1.41,-0.21 -2.51,-1.45 -3.91,-1.69 -0.71,-0.12 -1.34,0.64 -2.06,0.66 -0.39,0.01 -0.61,-0.61 -1,-0.6 -0.41,0.01 -0.64,0.69 -1.04,0.64 -2.37,-0.36 -4.61,-1.38 -6.97,-1.82 -0.66,-0.13 -1.36,-0.03 -2.02,0.13 -0.69,0.17 -1.26,0.75 -1.97,0.83 -1.35,0.16 -2.74,0.19 -4.06,-0.11 -1.38,-0.32 -2.5,-1.49 -3.91,-1.7 -0.72,-0.11 -1.3,0.82 -2.03,0.8 -1.05,-0.03 -1.95,-0.91 -3,-0.94 -0.71,-0.02 -1.27,0.73 -1.97,0.82 -1.66,0.23 -3.38,0.45 -5.02,0.14 -1.43,-0.28 -2.58,-1.3999995 -3.96,-1.8499995 -0.65,-0.22 -1.36,-0.13 -2.05,-0.14 -3,-0.03 -6.00998,-0.23 -8.99998,0.02 -1.04,0.08 -1.95,0.9199995 -3,0.9499995 -0.71,0.02 -1.26,-0.7899995 -1.97,-0.8099995 -0.71,-0.02 -1.3,0.68 -2,0.68 -0.71,0.01 -1.32,-0.64 -2.03,-0.64 -0.39,0 -0.58,0.64 -0.97,0.64 -0.71,0 -1.32,-0.64 -2.03,-0.64 -0.39,0 -0.58,0.64 -0.97,0.64 -0.71,0 -1.32,-0.63 -2.03,-0.64 -0.39,0 -0.61,0.6 -1,0.6 -0.39,0 -0.61,-0.61 -1,-0.6 -0.39,0.01 -0.6,0.53 -0.97,0.64 -0.34,0.1099995 -0.72,0.1099995 -1.06,0 -0.37,-0.11 -0.58,-0.63 -0.97,-0.64 -0.39,-0.01 -0.61,0.61 -1,0.6 -0.39,-0.01 -0.6,-0.55 -0.97,-0.65 -0.66,-0.18 -1.35,-0.15 -2.03,-0.15 -1.01,0 -2.04,-0.06 -3.03,0.15 -0.38,0.08 -0.55,0.69 -0.94,0.69 -1.05,0 -2.01,-0.68 -3.06,-0.68 -0.41,0 -0.6,0.69 -1.01,0.68 -16.73,-0.33 -33.45,-0.95 -50.17,-1.7 -10.93,-0.48 -21.82,-1.56 -32.75,-1.98 -0.43,-0.02 -0.66,0.7 -1.08,0.68 -12.99,-0.65 -25.93,-2.03 -38.92,-2.68 -0.42,-0.02 -0.66,0.7 -1.08,0.68 -8.31,-0.33 -16.59,-1.39 -24.9,-1.71 -0.72,-0.03 -1.34,0.67 -2.06,0.67 -0.39,0 -0.59,-0.57 -0.97,-0.65 -0.67,-0.15 -1.39,-0.16 -2.06,0 -0.38,0.09 -0.55,0.71 -0.94,0.69 -1.05,-0.03 -2,-0.68 -3.03,-0.82 -0.67,-0.1 -1.37,-0.04 -2.03,0.13 -0.37,0.1 -0.58,0.65 -0.97,0.65 -0.39,0 -0.6,-0.53 -0.97,-0.64 -0.34,-0.11 -0.72,-0.11 -1.06,0 -0.39,0.13 -0.61,0.7 -1.01,0.68 -9.99,-0.32 -19.93,-1.41 -29.92,-1.68 -0.73,-0.02 -1.31,0.72 -2.04,0.82 -1,0.14 -2.04,0.08 -3.03,-0.13 -0.38,-0.08 -0.55,-0.69 -0.94,-0.69 -0.71,-0.02 -1.32,0.63 -2.03,0.64 -0.39,0 -0.61,-0.6 -1,-0.6 -0.39,0 -0.61,0.6 -1,0.6 -0.39,0 -0.61,-0.6 -1,-0.6 -0.39,0 -0.61,0.62 -1,0.6 -0.72,-0.04 -1.3,-0.67 -2,-0.78 -0.67,-0.11 -1.37,-0.05 -2.03,0.13 -0.39,0.1 -0.61,0.76 -1,0.68 -1.39,-0.29 -2.5,-1.52 -3.91,-1.69 -1.05,-0.13 -2,0.85 -3.06,0.83 -1.05,-0.02 -1.95,-0.93 -3,-0.95 -14.33,-0.30000002 -28.67001,-0.27000002 -43.00001,0 -0.71,0.01 -1.26,0.82 -1.97,0.82 -1.05,0 -2,-0.68 -3.03,-0.82 -0.67,-0.1 -1.38,-0.05 -2.03,0.13 -0.37,0.1 -0.55,0.69 -0.94,0.69 -0.71,0.02 -1.32,-0.63 -2.03,-0.64 -0.39,0 -0.61,0.62 -1,0.6 -0.71,-0.04 -1.29,-0.79 -2,-0.77 -1.05,0.04 -1.95,0.9 -3,0.94 -0.71,0.02 -1.29,-0.74 -2,-0.77 -0.39,-0.02 -0.58,0.64 -0.97,0.64 -0.71,0 -1.32,-0.63 -2.03,-0.64 -0.39,0 -0.61,0.62 -1,0.6 -0.71,-0.04 -1.29,-0.77 -2,-0.77 -0.71,0 -1.29,0.74 -2,0.77 -0.39,0.02 -0.58,-0.65 -0.97,-0.64 -1.05,0.01 -2.01,0.68 -3.06,0.68 -0.39,0 -0.55,-0.68 -0.94,-0.68 -0.71,-0.01 -1.32,0.64 -2.03,0.64 -0.39,0 -0.6,-0.53 -0.97,-0.64 -0.34,-0.11 -0.72,-0.11 -1.06,0 -0.37,0.11 -0.58,0.63 -0.97,0.64 -0.39,0.01 -0.61,-0.61 -1,-0.6 -0.39,0.01 -0.6,0.55 -0.97,0.65 -0.66,0.18 -1.35,0.14 -2.03,0.15 -1.67,0.03 -3.34,0.17 -5,-0.02 -0.71,-0.08 -1.28,-0.73 -2,-0.78 -0.39,-0.02 -0.61,0.61 -1,0.6 -0.41,-0.01 -0.64,-0.66 -1.04,-0.64 -10.32,0.33 -20.6,1.36 -30.92,1.68 -0.41,0.02 -0.62,-0.58 -1.01,-0.69 -0.66,-0.18 -1.36,-0.24 -2.03,-0.13 -1.03,0.17 -1.95,0.92 -3,0.95 -0.73,0.02 -1.31,-0.85 -2.04,-0.81 -5.68,0.3 -11.3,1.32 -16.97,1.83 -0.67,0.06 -1.37,0.04 -2.02,-0.14 -0.39,-0.11 -0.6,-0.72 -1.01,-0.69 -8.87,0.55 -17.73,1.38 -26.55,2.42 -4.84,0.57 -9.56,1.99 -14.41,2.39 -1.05,0.09 -1.95,-0.9 -3,-0.94 -0.71,-0.02 -1.29,0.74 -2,0.77 -0.39,0.02 -0.6,-0.52 -0.97,-0.64 -0.35,-0.11 -0.74,-0.12 -1.09,-0.02 -1.67,0.46 -3.2,1.39 -4.9,1.69 -0.4,0.07 -0.64,-0.62 -1.04,-0.63 -0.39,-0.01 -0.61,0.6 -1,0.6 -0.39,0 -0.61,-0.62 -1,-0.6 -0.71,0.04 -1.29,0.78 -2,0.77 -1.05,-0.01 -2.01,-0.98 -3.06,-0.83 -1.11,0.16 -1.83,1.39 -2.91,1.68 -0.39,0.1099995 -0.63,-0.62 -1.03,-0.62 -0.39,0 -0.58,0.64 -0.97,0.64 -0.71,0 -1.32,-0.63 -2.03,-0.64 -0.39,0 -0.61,0.61 -1,0.6 -0.4,-0.01 -0.64,-0.71 -1.03,-0.63 -1.4,0.29 -2.54,1.3699995 -3.94,1.6599995 -0.39,0.08 -0.63,-0.63 -1.03,-0.63 -0.39,0 -0.6,0.53 -0.97,0.64 -0.34,0.11 -0.73,0.12 -1.06,0 -0.37,-0.12 -0.57,-0.55 -0.94,-0.68 -0.34,-0.12 -0.75,-0.14 -1.09,-0.02 -1.34,0.46 -2.52,1.33 -3.88,1.73 -0.67,0.19 -1.41,0.13 -2.09,-0.02 -0.38,-0.08 -0.58,-0.64 -0.97,-0.65 -0.39,-0.01 -0.61,0.61 -1,0.6 -0.59,-0.02 -1.08,-0.85 -1.65,-0.67 -0.77,0.25 -0.91,1.58 -1.7,1.74 -0.91,0.18 -1.73,-0.74 -2.65,-0.85 -1.32,-0.17 -2.69,-0.24 -3.99,-0.01 -2.05,0.38 -3.92,1.48 -5.97,1.82 -0.4,0.07 -0.64,-0.62 -1.04,-0.63 -0.39,-0.01 -0.61,0.61 -1,0.6 -0.39,-0.01 -0.6,-0.53 -0.97,-0.64 -0.34,-0.11 -0.73,-0.12 -1.06,0 -0.37,0.13 -0.57,0.59 -0.94,0.69 -0.66,0.19 -1.35,0.15 -2.03,0.15 -7.33,0.04 -14.67,0.23 -21.994,-0.01 -10.998,-0.37 -21.964,-1.46 -32.963,-1.83 -0.428,-0.02 -0.658,0.7 -1.086,0.68 -9.649,-0.32 -19.265,-1.36 -28.914,-1.68 -0.408,-0.02 -0.627,0.55 -1.013,0.68 -0.346,0.12 -0.73,0.06 -1.093,0.03 -6.635,-0.53 -13.246,-1.39 -19.894,-1.71 -0.428,-0.02 -0.658,0.7 -1.086,0.68 -21.647,-0.65 -43.268,-2.0099995 -64.914,-2.6799995 -0.408,-0.02 -0.635,0.66 -1.043,0.64 -0.716,-0.03 -1.292,-0.69 -2.004,-0.78 -1,-0.13 -2.032,-0.06 -3.022,0.13 -0.703,0.13 -1.273,0.71 -1.978,0.83 -0.665,0.12 -1.369,0.04 -2.022,-0.13 -0.378,-0.1 -0.584,-0.64 -0.974,-0.65 -0.388,-0.01 -0.612,0.62 -1,0.6 -0.713,-0.04 -1.286,-0.78 -2,-0.77 -0.713,0.01 -1.281,0.65 -1.974,0.82 -0.658,0.16 -1.349,0.15 -2.026,0.15 -0.677,0 -1.369,0.01 -2.026,-0.15 -0.695,-0.17 -1.269,-0.73 -1.978,-0.83 -0.998,-0.15 -2.033,-0.07 -3.022,0.13 -0.383,0.07 -0.583,0.65 -0.974,0.65 -0.391,0 -0.596,-0.55 -0.974,-0.65 -0.654,-0.17 -1.356,-0.24 -2.022,-0.13 -0.708,0.11 -1.288,0.75 -2.004,0.78 -0.39,0.02 -0.591,-0.58 -0.974,-0.65 -0.99,-0.2 -2.016,-0.15 -3.026,-0.15 -1.343,0 -2.7,-0.06 -4.026,0.15 -0.386,0.06 -0.583,0.65 -0.974,0.65 -0.391,0 -0.588,-0.59 -0.974,-0.65 -1.325,-0.21 -2.69,-0.29 -4.023,-0.13 -1.043,0.12 -1.953,0.91 -3.003,0.95 -0.714,0.03 -1.286,-0.74 -2,-0.77 -0.388,-0.02 -0.602,0.53 -0.973,0.64 -0.335,0.11 -0.722,0.12 -1.054,0 -0.37,-0.13 -0.564,-0.61 -0.947,-0.69 -0.988,-0.21 -2.016,-0.15 -3.026,-0.15 -0.677,0 -1.372,-0.03 -2.026,0.15 -0.378,0.1 -0.584,0.64 -0.974,0.65 -0.388,0.01 -0.612,-0.61 -1,-0.6 -0.388,0.01 -0.602,0.53 -0.973,0.64 -0.335,0.11 -0.722,0.12 -1.054,0 -0.37,-0.13 -0.57,-0.59 -0.947,-0.69 -0.651,-0.18 -1.357,-0.25 -2.022,-0.13 -0.704,0.12 -1.263,0.8 -1.977,0.82 -1.043,0.03 -2.011,-0.68 -3.054,-0.68 -0.39,0 -0.578,0.56 -0.946,0.68 -0.332,0.12 -0.715,0.09 -1.054,0 -0.687,-0.18 -1.262,-0.83 -1.973,-0.81 -1.047,0.03 -1.952,0.94 -3,0.94 -1.048,0 -1.953,-0.9 -3,-0.94 -0.714,-0.02 -1.287,0.73 -2,0.77 -0.388,0.02 -0.612,-0.61 -1,-0.6 -0.391,0.01 -0.592,0.57 -0.974,0.65 -0.669,0.15 -1.383,0.15 -2.052,0 -0.382,-0.08 -0.584,-0.66 -0.974,-0.65 -0.714,0.03 -1.286,0.79 -2,0.77 -1.047,-0.04 -1.952,-0.94 -3,-0.94 -1.048,0 -1.952,0.94 -3,0.94 -1.05,0 -1.967,-0.78 -3.004,-0.95 -0.667,-0.11 -1.371,-0.05 -2.022,0.13 -0.397,0.11 -0.607,0.71 -1.017,0.69 -8.983,-0.32 -17.929,-1.42 -26.914,-1.68 -0.736,-0.02 -1.317,0.73 -2.047,0.82 -0.999,0.14 -2.035,0.08 -3.022,-0.13 -0.383,-0.08 -0.556,-0.69 -0.947,-0.69 -0.709,-0.02 -1.319,0.66 -2.027,0.64 -0.714,-0.02 -1.286,-0.77 -2,-0.77 -0.714,0 -1.286,0.77 -2,0.77 -0.714,0 -1.286,-0.77 -2,-0.77 -0.714,0 -1.286,0.74 -2,0.77 -0.39,0.01 -0.596,-0.55 -0.974,-0.65 -0.654,-0.18 -1.349,-0.15 -2.026,-0.15 -0.677,0 -1.372,-0.03 -2.026,0.15 -0.378,0.1 -0.584,0.66 -0.974,0.65 -0.714,-0.03 -1.286,-0.8 -2,-0.77 -1.05,0.04 -1.967,0.78 -3.004,0.95 -0.666,0.11 -1.365,0.03 -2.022,-0.13 -0.693,-0.16 -1.261,-0.81 -1.974,-0.82 -0.714,-0.01 -1.287,0.73 -2,0.77 -0.388,0.02 -0.612,-0.6 -1,-0.6 -0.389,0 -0.612,0.61 -1,0.6 -0.391,-0.01 -0.596,-0.55 -0.974,-0.65 -0.654,-0.18 -1.349,-0.15 -2.026,-0.15 -20.333,-0.05 -40.667,-0.05 -60.999997,0 -0.677,0 -1.375,-0.04 -2.026,0.15 -0.377,0.1 -0.556,0.7 -0.947,0.69 -1.044,-0.03 -1.982,-0.8 -3.027,-0.81 -0.714,-0.01 -1.286,0.77 -2,0.77 -0.714,0 -1.286,-0.77 -2,-0.77 -0.714,0 -1.287,0.73 -2,0.77 -0.388,0.02 -0.612,-0.61 -1,-0.6 -0.39,0.01 -0.596,0.55 -0.974,0.65 -0.654,0.18 -1.349,0.15 -2.026,0.15 -0.677,0 -1.375,0.04 -2.026,-0.15 -0.377,-0.1 -0.555,-0.69 -0.947,-0.69 -0.708,-0.02 -1.318,0.64 -2.027,0.64 -0.389,0 -0.602,-0.53 -0.973,-0.64 -0.335,-0.11 -0.721,-0.11 -1.055,0 -0.387,0.13 -0.607,0.71 -1.015,0.68 -10.899,-0.61 -21.773,-1.61 -32.646,-2.58 -2.498,-0.22 -5,-0.49 -7.458,-0.98 -2.561,-0.52 -5.132,-1.09 -7.571,-2.03 -1.2010002,-0.46 -2.0870002,-1.52000002 -3.2280002,-2.11000002 -0.315,-0.17 -0.704,-0.13 -1.06,-0.13 -1.341,0.01 -2.77,-0.35 -4.02,0.14 -1.02,0.39 -1.81499996,1.35000002 -2.31599996,2.32000002 -0.236,0.46 0.1,1.05 0.34,1.51 0.416,0.8 0.81699996,1.72 1.58999996,2.18 2.249,1.33 4.695,2.39 7.226,3.04 4.2100002,1.0799995 8.5570002,1.5499995 12.8670002,2.1199995 7.408,0.98 14.827,1.93 22.277,2.52 0.407,0.03 0.627,-0.56 1.014,-0.68 0.334,-0.11 0.716,-0.1 1.055,0 0.689,0.19 1.262,0.81 1.976,0.82 14.664,0.27 29.332,0.06 43.997,0.02 0.677,0 1.372,0.03 2.026,-0.15 0.378,-0.1 0.583,-0.64 0.974,-0.65 0.388,-0.01 0.612,0.6 1,0.6 0.388,0 0.612,-0.61 1,-0.6 0.388,0.01 0.602,0.53 0.973,0.64 0.335,0.11 0.719,0.11 1.054,0 0.371,-0.11 0.584997,-0.64 0.972997,-0.64 0.388,0 0.602,0.53 0.973,0.64 0.335,0.11 0.715,0.09 1.054,0 0.687,-0.18 1.262,-0.81 1.973,-0.81 1.045,0 1.983,0.78 3.027,0.81 0.391,0.01 0.57,-0.59 0.947,-0.69 0.651,-0.19 1.349,-0.15 2.026,-0.15 0.677,0 1.368,-0.01 2.026,0.15 0.693,0.17 1.261,0.81 1.974,0.82 0.714,0.01 1.286,-0.74 2,-0.77 0.388,-0.02 0.602,0.53 0.973,0.64 0.335,0.11 0.722,0.12 1.054,0 0.368,-0.12 0.577,-0.55 0.943,-0.68 0.344,-0.12 0.729,-0.04 1.093,-0.03 19.981,0.59 39.954,1.51 59.94,1.84 0.71,0.01 1.26,-0.78 1.97,-0.81 0.708,-0.03 1.318,0.63 2.027,0.64 0.388,0 0.612,-0.61 1,-0.6 0.388,0.01 0.602,0.53 0.973,0.64 0.335,0.11 0.719,0.11 1.054,0 0.371,-0.11 0.584,-0.63 0.973,-0.64 0.388,-0.01 0.611,0.6 1,0.6 0.389,0 0.612,-0.61 1,-0.6 0.388,0.01 0.602,0.53 0.973,0.64 0.335,0.11 0.722,0.12 1.054,0 0.368,-0.12 0.577,-0.56 0.946,-0.68 0.332,-0.12 0.722,-0.12 1.054,0 0.37,0.13 0.57,0.59 0.947,0.69 0.651,0.19 1.349,0.15 2.026,0.15 24,0.05 48,0.05 72,0 0.677,0 1.374,0.03 2.026,-0.15 0.396,-0.11 0.606,-0.7 1.017,-0.69 26.326,0.37 52.642,1.27 78.964,1.83 0.674,0.01 1.368,0.04 2.019,-0.14 0.396,-0.11 0.607,-0.71 1.017,-0.69 6.671,0.35 13.286,1.51 19.96,1.81 0.731,0.03 1.309,-0.85 2.039,-0.81 5.322,0.26 10.574,1.41 15.895,1.71 0.739,0.04 1.366,-0.76 2.106,-0.71 11.218,0.7 22.425,1.65 33.592,2.93 0.584,0.07 -1.015,0.72 -1.603,0.74 -0.405,0.01 -0.612,-0.59 -1.006,-0.68 -0.679,-0.15 -1.406,-0.16 -2.088,-0.02 -3.629,0.74 -7.233,1.63 -10.792,2.66 -0.752,0.21 -1.312,0.99 -2.092,1.07 -0.715,0.07 -1.335,-0.66 -2.054,-0.66 -0.388,0 -0.602,0.53 -0.973,0.64 -0.335,0.11 -0.719,0.11 -1.054,0 -0.371,-0.11 -0.604,-0.76 -0.974,-0.64 -0.812,0.26 -1.189,1.33 -1.999,1.6 -0.368,0.12 -0.611,-0.6 -1,-0.6 -0.389,0 -0.612,0.61 -1,0.6 -0.403,-0.01 -0.633,-0.67 -1.034,-0.63 -0.99,0.1 -1.844,0.77 -2.81,1 -2.127,0.52 -4.291,0.87 -6.447,1.24 -4.876,0.86 -9.743,1.78 -14.647,2.46 -1.561,0.22 -3.209,-0.21 -4.721,0.24 -0.714,0.21 -0.872,1.3 -1.551,1.6 -0.289,0.13 -0.453,-0.51 -0.766,-0.56 -1.017,-0.16 -2.069,-0.17 -3.086,-0.02 -11.158,1.64 -22.293,3.43 -33.402,5.37 -24.137,4.21 -48.253,8.55 -72.331,13.09 -15.358,2.89 -30.698,5.89 -45.973,9.2 -0.52,0.11 -0.708,0.92 -1.232,1.01 -0.395,0.07 -0.641,-0.72 -1.029,-0.62 -1.088,0.28 -1.852,1.37 -2.942,1.64 -0.389,0.1 -0.601,-0.66 -1.002,-0.66 -0.708,-0.01 -1.318,0.6 -2.025,0.64 -0.314,0.01 -0.497,-0.62 -0.792,-0.51 -0.851,0.3 -1.332,1.34 -2.202,1.57 -0.4,0.11 -0.635,-0.78 -1.037,-0.68 -1.088,0.27 -1.815,1.46 -2.916,1.68 -0.703,0.13 -1.323,-0.59 -2.029,-0.71 -0.674,-0.12 -1.4,-0.2 -2.05,0.01 -0.299,0.09 -0.199,0.68 -0.489,0.81 -1.712,0.71 -3.519,1.18 -5.323,1.6 -9.342,2.21 -18.681,4.46 -28.103,6.3 -1.337,0.26 -2.736,0.16 -4.087,-0.02 -0.388,-0.05 -0.697,-0.92 -0.978,-0.65 -0.321,0.31 0.523,0.92 0.304,1.31 -0.226,0.4 -0.842,0.44 -1.304,0.47 -1.005,0.08 -2.033,0.07 -3.022,-0.13 -0.385,-0.07 -0.624,-0.82 -0.978,-0.65 -0.313,0.15 0.525,0.91 0.197,1.02 -4.624,1.53 -9.378,2.68 -14.16,3.61 -0.41,0.08 -0.655,-0.73 -1.067,-0.66 -3.813,0.67 -7.543,1.76 -11.267,2.83 -0.595,0.17 -1.027,0.83 -1.645,0.86 -0.715,0.03 -1.323,-0.59 -2.028,-0.71 -0.685,-0.12 -1.411,-0.18 -2.087,-0.02 -3.005,0.75 -5.834,2.17 -8.878,2.73 -0.721,0.14 -1.37,-0.82 -2.09,-0.68 -1.104,0.21 -1.854,1.36 -2.942,1.64 -0.388,0.1 -0.648,-0.74 -1.029,-0.62 -0.813,0.26 -1.187,1.34 -2,1.6 -0.369,0.12 -0.601,-0.52 -0.971,-0.64 -0.346,-0.11 -0.744,-0.14 -1.088,-0.02 -1.345997,0.45 -2.517997,1.4 -3.906997,1.69 -0.394,0.08 -0.622,-0.55 -1.005,-0.67 -0.344,-0.12 -0.737,-0.11 -1.088,-0.02 -0.934,0.25 -1.775,0.78 -2.712,1.02 -8.107,2.01 -16.302,3.66 -24.399,5.71 -3.307,0.84 -6.459,2.25 -9.796,2.96 -0.409,0.09 -0.665,-0.77 -1.068,-0.66 -3.404,0.93 -6.528,2.73 -9.932,3.66 -0.404,0.11 -0.663,-0.76 -1.068,-0.66 -1.896,0.49 -3.659,1.41 -5.397,2.31 -1.047,0.55 -2.23,1.04 -2.92,2 -0.399,0.55 -0.415,1.500004 0,2.040004 0.829,1.08 1.997,2.31 3.357,2.32 2.201,0.03 4.109,-1.59 6.224,-2.2 4.068,-1.180004 8.186,-2.180004 12.308,-3.150004 17.206,-4.04 34.38,-8.24 51.674997,-11.88 23.506,-4.96 47.113,-9.43 70.714,-13.92 29.826,-5.67 59.741,-10.87 89.564,-16.56 2.529,-0.49 4.924,-1.58 7.47,-1.97 0.418,-0.06 0.662,0.75 1.078,0.68 3.363,-0.63 6.528,-2.13 9.9,-2.7 0.711,-0.12 1.339,0.64 2.061,0.66 0.388,0.01 0.612,-0.6 1,-0.6 0.388,0 0.612,0.6 1,0.6 0.388,0 0.612,-0.6 1,-0.6 0.389,0 0.632,0.72 1,0.6 0.81,-0.27 1.19,-1.33 1.999,-1.6 0.369,-0.12 0.612,0.61 1.001,0.6 0.388,-0.01 0.584,-0.63 0.973,-0.64 0.633,-0.02 1.204,0.71 1.818,0.55 0.874,-0.22 1.331,-1.34 2.201,-1.57 0.4,-0.11 0.634,0.78 1.036,0.68 1.089,-0.27 1.853,-1.33 2.918,-1.68 0.657,-0.22 1.403,-0.14 2.08,0.01 0.395,0.09 0.608,0.75 1.007,0.68 3.692,-0.63 7.199,-2.16 10.904,-2.7 0.926,-0.13 1.795,0.94 2.708,0.74 0.961,-0.21 1.353,-1.61 2.308,-1.84 0.708,-0.18 1.319,0.73 2.047,0.77 0.388,0.02 0.612,-0.6 1,-0.6 0.401,0.01 0.642,0.73 1.029,0.62 1.084,-0.29 1.852,-1.33 2.917,-1.68 0.657,-0.22 1.402,-0.14 2.08,0.01 0.382,0.08 0.604,0.77 0.974,0.65 0.811,-0.27 1.143,-1.43 1.972,-1.64 0.688,-0.17 1.319,0.63 2.028,0.64 0.388,0 0.612,-0.6 1,-0.6 0.389,0 0.632,0.72 1,0.6 0.81,-0.27 1.19,-1.33 1.999,-1.6 0.369,-0.12 0.612,0.6 1.001,0.6 0.388,0 0.612,-0.61 1,-0.6 0.388,0.01 0.602,0.53 0.972,0.64 0.336,0.11 0.746,0.17 1.055,0 0.752,-0.41 1.162,-1.37 1.972,-1.64 0.371,-0.12 0.589,0.59 0.975,0.65 1.015,0.17 2.073,0.19 3.088,0.02 2.33,-0.4 4.545,-1.34 6.876,-1.74 1.549,-0.26 3.209,0.24 4.71,-0.23 0.781,-0.24 0.926,-1.52 1.706,-1.77 0.564,-0.17 1.045,0.59 1.62,0.72 0.658,0.16 1.357,0.25 2.022,0.13 0.705,-0.12 1.275,-0.7 1.978,-0.83 1.209,-0.23 2.525,0.16 3.685,-0.26 0.701,-0.24 0.872,-1.3 1.55,-1.6 0.289,-0.13 0.453,0.52 0.767,0.56 1.343,0.19 2.758,0.49 4.068,0.13 0.953,-0.25 1.362,-1.57 2.31,-1.85 0.568,-0.16 1.04,0.61 1.62,0.72 0.68,0.14 1.423,0.23 2.08,0.01 1.065,-0.35 1.83,-1.4 2.917,-1.68 0.391,-0.1 0.613,0.57 1.003,0.67 0.651,0.18 1.355,0.25 2.019,0.14 4.354,-0.79 8.596,-2.14 12.967,-2.83 0.401,-0.06 0.634,0.64 1.04,0.64 0.39,0 0.592,-0.57 0.974,-0.65 0.669,-0.15 1.384,-0.15 2.052,0 0.393,0.08 0.6,0.7 1.001,0.67 0.658,-0.05 1.141,-0.7 1.776,-0.87 2.704,-0.76 5.424,-1.53 8.203,-1.94 1.327,-0.19 2.698,-0.08 4.02,0.14 0.386,0.06 0.576,0.56 0.945,0.69 0.339,0.12 0.857,0.29 1.075,0.01 0.188,-0.25 -0.758,-0.73 -0.459,-0.81 4.723,-1.25 9.535,-2.19 14.372,-2.88 0.421,-0.06 0.659,0.72 1.081,0.68 4.762,-0.5 9.434,-1.66 14.183,-2.27 15.227,-1.95 30.457,-3.94 45.737,-5.41 0.73,-0.07 1.32,0.7 2.04,0.82 0.67,0.12 1.37,0.03 2.03,-0.13 0.69,-0.16 1.26,-0.81 1.97,-0.82 0.71,-0.01 1.29,0.73 2,0.77 0.39,0.02 0.61,-0.6 1,-0.6 0.39,0 0.61,0.62 1,0.6 0.71,-0.04 1.29,-0.78 2,-0.77 0.71,0.01 1.26,0.78 1.97,0.81 0.71,0.03 1.32,-0.63 2.03,-0.64 0.39,0 0.61,0.61 1,0.6 0.39,-0.01 0.58,-0.65 0.97,-0.64 0.71,0.01 1.3,0.68 2,0.68 0.71,0.01 1.32,-0.64 2.03,-0.64 0.39,0 0.6,0.53 0.97,0.64 0.34,0.11 0.72,0.09 1.06,0 0.68,-0.18 1.26,-0.8 1.97,-0.81 0.71,-0.01 1.29,0.73 2,0.77 0.39,0.02 0.61,-0.6 1,-0.6 0.39,0 0.61,0.61 1,0.6 0.39,-0.01 0.58,-0.64 0.97,-0.64 0.71,0 1.32,0.64 2.03,0.64 0.39,0 0.59,-0.59 0.97,-0.65 1.33,-0.21 2.69,-0.15 4.03,-0.15 1.01,0 2.04,-0.06 3.03,0.15 0.38,0.08 0.55,0.69 0.94,0.69 0.71,0.02 1.32,-0.64 2.03,-0.64 0.39,0 0.6,0.53 0.97,0.64 0.34,0.11 0.72,0.09 1.06,0 0.68,-0.18 1.26,-0.8 1.97,-0.81 0.71,-0.01 1.29,0.73 2,0.77 0.39,0.02 0.61,-0.6 1,-0.6 0.39,0 0.61,0.6 1,0.6 0.39,0 0.61,-0.61 1,-0.6 0.41,0.01 0.63,0.65 1.04,0.64 17.97,-0.35 35.93,-1.37 53.9,-1.71 0.72,-0.01 1.34,0.69 2.06,0.67 0.71,-0.02 1.29,-0.78 2,-0.77 0.73,0.01 1.31,0.82 2.04,0.81 20.31,-0.28 40.61,-1.34 60.92,-1.68 0.4,-0.01 0.63,0.64 1.04,0.64 0.39,0 0.58,-0.64 0.97,-0.64 0.71,0 1.32,0.63 2.03,0.64 0.39,0 0.61,-0.61 1,-0.6 0.41,0.01 0.63,0.65 1.04,0.64 16.98,-0.34 33.94001,-1.36 50.92001,-1.68 0.41,-0.01 0.62,0.58 1.01,0.69 0.66,0.18 1.36,0.25 2.03,0.13 0.7,-0.12 1.26,-0.79 1.97,-0.82 0.72,-0.03 1.35,0.8 2.06,0.66 1.1,-0.21 1.85,-1.37 2.94,-1.64 0.39,-0.1 0.61,0.57 1,0.67 0.66,0.18 1.35,0.15 2.03,0.15 20,0.05 40,0.05 60,0 0.68,0 1.37,0.03 2.03,-0.15 0.37,-0.1 0.58,-0.65 0.97,-0.65 0.39,0 0.59,0.6 0.97,0.65 1.67,0.22 3.35,0.15 5.03,0.15 1.01,0 2.04,0.06 3.03,-0.15 0.4,-0.08 0.6,-0.7 1.01,-0.69 40.77,0.43 81.53,1.17 122.29,2.02 2.22,0.04 4.41,0.67 6.63,0.66 0.42,0 0.66,-0.71 1.08,-0.68 4.33,0.31 8.59,1.37 12.92,1.68 0.42,0.03 0.66,-0.71 1.08,-0.68 4,0.31 7.92,1.37 11.92,1.68 0.42,0.03 0.66,-0.71 1.08,-0.68 24.98998,1.98 49.90998,4.76 74.89998,6.71 0.73,0.06 1.36,-0.77 2.1,-0.71 4.02,0.32 7.96,1.37 11.97,1.83 1,0.11 2.03,0.06 3.02,-0.14 0.38,-0.07 0.58,-0.65 0.97,-0.65 0.39,0 0.6,0.53 0.97,0.64 0.34,0.11 0.72,0.12 1.06,0 0.37,-0.12 0.55,-0.68 0.94,-0.68 0.71,-0.01 1.32,0.63 2.03,0.64 0.39,0 0.61,-0.62 1,-0.6 0.72,0.05 1.29,0.73 2,0.78 2,0.17 4.17,0.63 6.02,-0.13 m -371.72999,-17.38 v 0 c -0.43,0.17 -0.83,0.51 -1.29,0.51 -0.78,0.01 -1.74,0.07 -2.3,-0.48 -0.34,-0.32 0.84,-0.48 1.3,-0.48 m -13.71,0.45 v 0 c -0.43,0.17 -0.83,0.49 -1.28,0.5 -0.47,0 -1.31,-0.01 -1.31,-0.47 -0.01,-0.46 0.84,-0.46 1.3,-0.47 m -1.96,1.79 v 0 c -0.46,-0.1 -1.12,0.11 -1.38,-0.29 -0.24,-0.38 -0.09,-1.17 0.33,-1.33 0.41,-0.15 0.77,0.46 1.01,0.83 m -2.71,-0.56 v 0 c -0.43,0.17 -0.82,0.49 -1.28,0.5 -0.47,0 -1.31,-0.01 -1.31,-0.47 -0.01,-0.46 0.84,-0.46 1.3,-0.47 m -2.71,0.45 v 0 c -0.42,0.46 -0.74,1.03 -1.26,1.37 -0.29,0.19 -0.69,0.13 -1.03,0.13 -2.33,0.04 -4.68,0.22 -7,0 -0.73,-0.06 -1.31,-0.84 -2.04,-0.82 -10.32,0.27 -20.6,1.36 -30.92,1.68 -0.41,0.02 -0.61,-0.61 -1.01,-0.69 -0.99,-0.21 -2.02,-0.18 -3.02,-0.14 -11.66,0.52 -23.3,1.45 -34.97,1.83 -0.4,0.02 -0.63,-0.66 -1.04,-0.64 -0.71,0.03 -1.29,0.7 -2,0.77 -0.46,0.04 -1.04,-0.08 -1.3,-0.46 -0.16,-0.24 0.22,-0.67 0.5,-0.7 4.6,-0.51 9.23,-0.69 13.85,-0.89 15.96,-0.69 31.93,-1.46 47.91,-1.76 0.73,-0.02 1.31,0.8 2.04,0.81 0.71,0.01 1.29,-0.73 2,-0.77 0.39,-0.02 0.61,0.61 1,0.6 0.39,-0.01 0.6,-0.53 0.97,-0.64 0.34,-0.11 0.72,-0.11 1.06,0 0.37,0.11 0.58,0.66 0.97,0.64 0.72,-0.03 1.29,-0.74 2,-0.78 3.99,-0.2299995 8,-0.1399995 12,0 m -87.04,3.16 v 0 c 0.45,0.11 1.33,-0.14 1.34,0.32 0.02,0.45 -0.88,0.43 -1.32,0.33 m -1.69,-0.36 v 0 c -0.76,0.18 -1.51,0.5 -2.29,0.53 -3.66,0.14 -7.33,0.13 -11,-0.02 -0.46,-0.01 -1.63,-0.15 -1.3,-0.48 0.56,-0.55 1.52,-0.47 2.3,-0.5 3.66,-0.13 7.33,-0.12 11,0.02 m -165.698,6.32 v 0 c 0.582,0.5 1.911,0.76 1.746,1.51 -0.147,0.68 -1.477,0.34 -2.076,-0.01 -0.403,-0.23 -0.4,-0.91 -0.301,-1.36 m -11.961,3.05 v 0 c 0.437,-0.12 0.857,-0.35 1.31,-0.36 0.145,0 0.405,0.25 0.282,0.33 -0.387,0.25 -0.875,0.32 -1.333,0.33"
     id="path282"
     clip-path="none"
     style="fill:#7c099e;fill-opacity:1" />
  <metadata
     id="metadata1940">
    <rdf:RDF>
      <cc:Work
         rdf:about="">
        <dc:title>Stuff</dc:title>
      </cc:Work>
    </rdf:RDF>
  </metadata>
</svg>
